<?xml version="1.0" standalone="no"?>
<!DOCTYPE svg PUBLIC "-//W3C//DTD SVG 1.1//EN" "http://www.w3.org/Graphics/SVG/1.1/DTD/svg11.dtd" >
<svg xmlns="http://www.w3.org/2000/svg">
<metadata></metadata>
<defs>
<font id="calvin_and_hobbesnormal" horiz-adv-x="762" >
<font-face units-per-em="2048" ascent="1638" descent="-410" />
<missing-glyph horiz-adv-x="512" />
<glyph horiz-adv-x="2048" />
<glyph horiz-adv-x="2048" />
<glyph unicode="&#xd;" horiz-adv-x="2048" />
<glyph unicode=" "  horiz-adv-x="512" />
<glyph unicode="&#x09;" horiz-adv-x="512" />
<glyph unicode="&#xa0;" horiz-adv-x="512" />
<glyph unicode="!" horiz-adv-x="340" d="M0 1852q0 12 0.5 24.5t0.5 25.5q1 12 12 11q16 -2 33 -1t35 1q11 -1 22.5 -2.5t23.5 -1.5q40 -3 45 -5.5t2 -40.5q-5 -73 -2 -136q3 -42 5.5 -83.5t4.5 -83.5q1 -45 2.5 -90t1.5 -90q-1 -51 1.5 -101t6.5 -101q3 -41 5 -82t6 -82q3 -38 6 -75t8 -74q3 -29 4 -56.5 t4 -54.5q3 -45 11 -89t9 -87q1 -36 -3 -41t-37 -10q-24 -4 -45.5 -9t-44.5 -10q-36 -9 -35.5 3t-2.5 51q-5 54 -7.5 109.5t-6.5 110.5q-3 43 -4.5 86t-4.5 88q-3 27 -5 55.5t-4 56.5q-3 37 -7.5 74t-5.5 75l-4 96l-4 96q-3 39 -4.5 79t-3.5 79q-2 42 -5.5 83.5t-5.5 83.5 q-2 30 -4.5 59t-2.5 59zM75 178q-12 35 0 73q10 29 37 53q11 11 37 23q15 7 46 13q42 8 73 -7q19 -11 32.5 -39t18.5 -48q5 -28 0 -49q-8 -31 -19.5 -45t-30.5 -31q-41 -36 -102 -24q-34 4 -61 31q-21 18 -31 50z" />
<glyph unicode="&#x22;" horiz-adv-x="459" d="M0 1553q0 19 3.5 39.5t6.5 39.5q3 28 5 56.5t7 81.5q0 18 8 19q33 4 47 5q32 2 47 1q39 -2 48.5 -1.5t6.5 -38.5q-2 -25 -11 -54.5t-9 -53.5q-1 -21 -3 -42t1 -42q1 -19 1.5 -32t5.5 -28q4 -19 -5 -21q-3 -2 -13 -4q-12 -4 -19 4q-10 10 -13 11q-38 16 -76 15 q-26 -2 -32 0t-6 45zM244 1699q-2 18 5 20q30 10 45 13q33 8 47 10q37 5 47 6.5t14 -37.5q2 -24 -0.5 -54.5t-0.5 -54.5q0 -24 6.5 -64.5t16.5 -61.5q4 -10 7 -15q7 -17 -1 -22q-3 -2 -6 -3.5t-6 -2.5q-11 -6 -19 1l-15 9q-41 9 -78 0q-44 -11 -45 38q0 27 -5 86 q-3 27 -5 53t-7 79z" />
<glyph unicode="'" horiz-adv-x="194" d="M3 1536q1 15 3.5 38t5.5 50t5.5 52t6.5 77q1 19 9 20q29 3 46 5q32 2 48 1q38 -2 48 -2t7 -39q-3 -24 -11 -53.5t-10 -53.5q-1 -14 -1.5 -27.5t-0.5 -26.5v-31q0 -27 3 -43q1 -4 2 -8.5t3 -7.5q4 -18 -6 -22q-8 -2 -12 -4q-12 -4 -19 5q-10 10 -25 16q-23 9 -65 9 q-33 0 -36.5 4.5t-0.5 40.5z" />
<glyph unicode="+" horiz-adv-x="694" d="M1 545q2 19 2.5 47t4.5 54q4 31 43 30q44 -3 87.5 -2.5t88.5 -1.5q24 -2 29 33q2 26 8.5 80t10.5 107q2 27 41.5 26.5t61.5 -0.5q38 -2 48 -2t7 -39q-3 -24 -13 -82t-11 -82q-2 -41 26 -43q26 -3 91.5 -1t86.5 6q48 9 46 -26q-7 -76 -5 -125q1 -46 -38 -46 q-12 -1 -45.5 -1.5t-60.5 -0.5q-28 0 -54 -0.5t-41 -0.5q-27 0 -31 -38q-3 -15 -5.5 -39.5t-5.5 -44.5q-16 -91 -16.5 -127t-104.5 -27q-39 3 -49 4t-4 40q3 24 10.5 62.5t10.5 62.5q1 20 3 37.5t5 38.5q4 46 -23 48q-45 2 -83 3t-82 2q-42 1 -39 48z" />
<glyph unicode="," horiz-adv-x="194" d="M1.5 28q-1.5 2 1.5 44q2 27 5 40q5 27 8.5 76t7.5 101q1 19 9 20q11 0 22.5 2t23.5 3q32 2 48 1q38 -2 48 -2t7 -39q-3 -24 -11.5 -54t-9.5 -54q0 -17 -2 -53v-31q0 -27 3 -43q7 -21 5 -16q4 -19 -6 -22l-12 -3q-12 -3 -19 4q-8 8 -13 11q-37 15 -77 14q-37 -1 -38.5 1z " />
<glyph unicode="-" d="M1 658q-1 36 3.5 34.5t25.5 -1.5q28 0 56.5 -2.5t57.5 -2.5q54 -2 111 -2t113 -4q61 -6 130 -9t135 -8q15 -2 30.5 -1.5t30.5 -2.5q32 -4 31 -18q-2 -16 -2.5 -33.5t-0.5 -33.5q-1 -12 -2.5 -23t-1.5 -23q-4 -40 -6 -44t-20 1q-48 12 -113 19.5t-131 13.5q-46 3 -96 6 t-96 3q-57 -1 -113.5 -3t-111.5 -2q-18 0 -21 4t-3 40q-1 12 -1.5 24.5t-0.5 24.5q0 11 -2 21.5t-2 21.5z" />
<glyph unicode="." horiz-adv-x="262" d="M1 198q2 22 11 47q12 39 44 60q18 12 49 9t51 -9q25 -8 43 -24q23 -22 29 -39t12 -42q10 -56 -40 -111q-34 -39 -106 -27q-38 6 -64 35q-21 22 -28 57q-2 20 -1 44z" />
<glyph unicode="/" horiz-adv-x="733" d="M0.5 141q4.5 10 19.5 47q19 51 41 101.5t43 102.5q16 40 34.5 79t34.5 81l20 52t21 53q13 34 26.5 69t28.5 70q19 43 39.5 87t37.5 89q13 36 31.5 72t34.5 72q16 38 30 77t31 78q12 27 22 54.5t24 54.5q7 15 23 45q5 10 15 4q2 -1 4 -2.5t5 -1.5q-3 2 11 -5 q9 -6 19.5 -10.5t21.5 -10.5q9 -6 19 -12l20 -12t21 -11t20 -13q1 -1 -5 -10q-2 -3 -3.5 -6.5t-2.5 -6.5l-4 -8t-3 -7q-18 -30 -34 -59.5t-28 -61.5q-16 -39 -31.5 -77.5t-33.5 -75.5q-20 -42 -38 -83t-38 -81q-23 -46 -44 -91.5t-38 -93.5q-14 -39 -31 -76.5t-32 -75.5 q-14 -36 -27.5 -70.5t-25.5 -69.5q-10 -27 -21 -52t-21 -51q-32 -77 -51 -148q-2 -7 -8 -19q-15 -33 -17 -37.5t-41 9.5q-12 3 -24 7l-24 8q-11 3 -21.5 4t-20.5 4q-34 8 -29.5 18z" />
<glyph unicode="0" horiz-adv-x="856" d="M0 609q0 167 82 330q39 78 109 134q50 42 132 61q59 13 135.5 -2.5t130.5 -42.5q36 -18 82 -56.5t69 -77.5q26 -48 40 -92q20 -62 30 -148q3 -29 4.5 -81t-2.5 -98q-6 -55 -15.5 -81.5t-24.5 -65.5q-20 -51 -60 -109t-79 -87q-43 -31 -105 -47q-86 -23 -179 -8 q-45 6 -82.5 27t-76.5 49q-40 28 -72 71t-57 87q-31 53 -45 117q-16 62 -16 120zM166 655q1 -70 16 -116q9 -33 16.5 -57.5t25.5 -54.5q19 -34 44.5 -52.5t56.5 -34.5q27 -15 63.5 -18t66.5 1q51 6 88 47q20 24 43 59t32 67q28 94 28 140q0 33 -9 73.5t-44 104.5 q-37 63 -79 99q-32 25 -83.5 33t-86.5 -4q-32 -12 -64 -32q-58 -39 -97 -140q-18 -45 -17 -115z" />
<glyph unicode="1" horiz-adv-x="473" d="M1.5 970.5q-6.5 6.5 21.5 33.5q24 23 52.5 42t54.5 43q26 23 88 85q17 18 31 24.5t8 28.5q-6 21 -9 39.5t-9 39.5q-8 27 2 27t40 -2q34 -4 65 -7t67 -9q38 -7 36 -35q-4 -78 -10.5 -156t-9.5 -156q-4 -86 -5 -134q-1 -60 -4.5 -118t-3.5 -117q-1 -36 -1.5 -90t-1.5 -92 q-1 -42 0.5 -83.5t-1.5 -82.5q-3 -39 -24 -33.5t-50 7.5q-26 3 -53 3q-55 1 -71.5 -7t0.5 40q8 24 8.5 31.5t2.5 28.5q7 112 10 225t9 225q2 42 0.5 83t5.5 83q1 11 4.5 25t6.5 29v16t-7 3q-6 -9 -17 -15.5t-18 -12.5q-10 -9 -38 -44q-15 -20 -27 -30q-2 -2 -10 -8.5 t-16 -13.5q-16 -16 -30 -5q-26 19 -63 56z" />
<glyph unicode="2" horiz-adv-x="930" d="M1 276q-1 27 6 29t25 1q51 -4 73 11q18 12 29.5 30.5t23.5 37.5q22 32 42 65.5t43 69.5q24 39 48 76.5t50 76.5q21 33 50.5 71.5t44.5 71.5q20 47 26 74q5 34 1 77q-8 76 -47 133q-25 36 -72 59q-78 39 -134 41q-48 1 -52 9.5t0 52.5q1 13 0 47t-4 50q-7 30 35 28 q45 -3 92 -19t89 -34q70 -32 124 -79q83 -71 135 -182q36 -80 35 -164q0 -30 -9 -75.5t-26 -69.5q-26 -35 -51 -69t-52 -67q-38 -48 -73.5 -96t-68.5 -99q-12 -19 -23 -38.5t-26 -36.5q-17 -18 -24 -26.5t22 -12.5q18 -3 34 -3.5t37 -0.5h146t119 3q48 1 95 7t95 10 q13 1 19 -22q4 -18 6 -77t0 -69q-6 -24 -14 -23t-20 3q-26 4 -54.5 6t-53.5 4q-79 3 -114 0.5t-103 -5.5q-78 -6 -131 -4q-33 0 -73 4.5t-72 -6.5q-22 -9 -29 -28t-17 -36q-15 -24 -18 -25t-26 17q-24 17 -53 17.5t-44 21.5q-15 19 -22 11t-19 3q-11 7 -11 9q-10 25 -7.5 33 t2.5 31t-1.5 37.5t-2.5 38.5z" />
<glyph unicode="3" horiz-adv-x="761" d="M0 1520q0 23 6.5 24t23.5 4q26 3 44 5.5t42 3.5q126 6 256.5 -33.5t218.5 -150.5q88 -112 114 -239q20 -96 -3 -155q-27 -66 -56.5 -106.5t-92.5 -84.5q-23 -16 -33 -23.5t-35 -22.5q-24 -13 3 -37q57 -51 90 -90t57 -93q22 -49 32 -89q20 -92 18 -172q-2 -50 -23 -98 q-63 -135 -212 -196q-96 -39 -192 -51q-38 -4 -75 -4.5t-75 -1.5q-39 0 -66 -4.5t-33 21.5q-3 12 -1 70t7 76q6 23 19 22q61 -6 122.5 -9.5t123.5 -0.5q33 1 89 13t83 33q42 33 57.5 85.5t20.5 96.5q6 63 -13 121q-40 109 -146 166q-51 27 -115 43q-67 16 -90.5 13.5 t-21.5 23.5q1 24 -0.5 43t0.5 43q3 38 3.5 48t39.5 5q59 -7 91 -2.5t86 25.5q101 36 152 105q37 50 33 118t-23 125q-25 71 -85 121q-52 43 -106.5 63t-150.5 16q-20 -2 -34 -4.5t-28 -4.5q-13 -3 -29.5 -9.5t-33.5 -11.5q-13 -4 -23 18q-9 16 -22.5 73t-13.5 69z" />
<glyph unicode="4" horiz-adv-x="1161" d="M0 645q0 52 28 40q20 -10 38 -13.5t39 -10.5q21 -8 28.5 5.5t27.5 30.5q126 109 245 230q42 43 90 82t92 84q23 23 52 54.5t55 57.5q17 17 43 48t47 49q15 14 25 30t21 31q7 10 29 0q16 -9 61 -47t52 -47q13 -20 7 -25.5t-16 -13.5q-40 -33 -76.5 -70t-75.5 -72 q-43 -39 -84.5 -82t-85.5 -79q-46 -39 -82.5 -72t-79.5 -70q-31 -27 -64 -51.5t-63 -51.5q-35 -30 -18.5 -34t61.5 0q41 3 82 -1t83 -4q34 -1 54 -3.5t66 -2.5h59t60 -2q26 -2 29 33q3 26 7.5 52.5t9.5 79.5q1 27 41 26t61 -1q38 -2 48 -2t7 -39q-2 -24 -11 -54t-9 -54 q-2 -39 26 -43q17 -2 25.5 -0.5t30.5 2.5q35 1 38 -9t-3 -63q-1 -6 -1 -53q0 -13 1 -26t0 -26q-2 -20 -32 -20q-24 -1 -37 -0.5t-43 0.5q-25 0 -31 -38q-3 -15 -5.5 -39.5t-5.5 -44.5q-16 -91 -16.5 -116.5t-103.5 -16.5q-39 3 -49 3.5t-5 39.5q3 24 11 52.5t10 52.5 q2 21 4 38t5 38q4 46 -23 48q-35 2 -61 4.5t-66 4.5q-29 1 -78 3t-90 4q-33 2 -66 0.5t-66 -0.5q-57 1 -115 0.5t-113 -0.5q-56 2 -85 2q-29 1 -33 39q-3 35 -4.5 66.5t-1.5 66.5z" />
<glyph unicode="5" horiz-adv-x="813" d="M1 70q5 24 16 64t29 76q9 19 28 9t64 -20q27 -7 55.5 -9t49.5 -2q44 0 67 2.5t59 6.5q45 4 106 18q126 29 140 160q3 36 3.5 77t-9.5 77q-38 123 -150 183q-51 27 -120 43q-52 12 -105 12.5t-105 3.5q-71 4 -71 26q0 31 5 62q7 42 3.5 97t-2.5 100q2 90 -0.5 133.5 t25 58.5t104 9.5t236.5 -13.5q67 -3 134 -2t135 4q15 0 45 -0.5t29 -21.5q-3 -32 -1 -56.5t-5 -56.5q-9 -38 -21.5 -40t-49.5 3q-54 6 -107 13t-106 11q-38 3 -75.5 10t-74.5 9q-30 1 -34 3t-26 2q-35 0 -39.5 -10.5t-4.5 -31.5q-1 -23 -4 -39t-3 -33q1 -34 -3 -48t29 -14 q99 -6 216 -56q18 -8 30 -15t29 -16q121 -69 201 -225q21 -43 32 -89q20 -92 18 -172q-2 -37 -25 -95q-58 -142 -210 -200q-107 -41 -192 -48q-197 -18 -317 13q-13 3 -22 3.5t-6 23.5z" />
<glyph unicode="6" horiz-adv-x="893" d="M1 527q-5 149 56 295q18 42 41.5 82t47.5 81q36 64 73.5 128.5t79.5 127.5q45 70 87 137q13 21 29.5 41t30.5 41q19 30 40.5 57.5t44.5 55.5q44 51 79 99q45 61 84 35q25 -18 34 -22.5t32 -28.5q27 -29 20.5 -36.5t-32.5 -33.5q-35 -35 -55 -53.5t-43 -45.5 q-35 -41 -74 -85t-68 -89q-22 -35 -38.5 -58.5t-43.5 -68.5q-36 -58 -51 -103q-11 -32 -3 -36t16 -6q35 -10 71.5 -21.5t68.5 -29.5q39 -24 74 -46.5t71 -52.5q62 -55 97 -123q81 -169 50 -357q-9 -55 -43 -104t-75 -85q-61 -53 -152 -74q-48 -11 -98 -20t-99 -9 q-60 -1 -116 11.5t-101 54.5q-48 43 -95 154q-36 83 -40 188zM181 564q-5 -63 8.5 -125t55.5 -104q27 -27 58 -35t91 -12q28 -3 58.5 1t58.5 10q172 32 166 232q-1 45 -6.5 77t-25.5 76q-30 59 -94 103q-36 24 -81.5 44.5t-86.5 35.5q-58 19 -80.5 7t-45.5 -58 q-10 -20 -22 -45t-21 -61q-13 -48 -21.5 -77.5t-11.5 -68.5z" />
<glyph unicode="7" horiz-adv-x="1308" d="M0 1092q0 11 6 53.5t11 73.5q5 35 33 31.5t66 -6.5q27 -4 69 -6t66 -2q63 -3 123 -8.5t123 -2.5q85 1 152 -1q161 -9 336 -4q25 0 39.5 -4.5t25.5 15.5q10 20 20.5 35t20.5 35q13 25 20 18t27 -29q50 -55 86 -102q22 -31 2 -50q-16 -15 -32 -29t-29 -29 q-38 -46 -75 -90.5t-74 -89.5q-18 -25 -38 -48.5t-37 -47.5q-21 -24 -42 -47t-42 -47q-31 -34 -46.5 -48t35.5 -16q24 -1 53.5 2.5t53.5 3.5q39 -1 38 -10.5t-3 -48.5q-1 -24 -6 -47t-9 -46q-2 -8 -20 -6q-43 1 -65.5 0t-48.5 -1q-21 -1 -45 0t-39 1q-44 -3 -62 -27 q-18 -22 -33 -40t-33 -42t-31 -46.5t-26 -47.5q-39 -73 -64.5 -115.5t-64.5 -114.5q-22 -39 -39 -80t-39 -78q-19 -30 -21.5 -34.5t-40.5 13.5q-22 11 -43 18t-43 15q-34 12 -27.5 21.5t25.5 44.5q25 48 52.5 95.5t54.5 95.5q21 39 43.5 75.5t43.5 75.5q12 24 18.5 35.5 t27.5 46.5q12 22 18 30t21 29q28 43 -14 43q-25 -1 -55.5 -4.5t-54.5 -1.5q-39 2 -38 12t5 49q3 29 20 92q1 6 20 6q52 -4 79 -3.5t54 0.5q70 0 77.5 12t52.5 64q39 45 54 66t48 63q25 33 44.5 64t47.5 62q26 27 36 44t22 26q1 0 12 11t-3 7q-21 -6 -50 -3.5t-53 1.5 q-79 -6 -159.5 -7t-161.5 -3q-57 -2 -117 2t-117 2q-53 -3 -105 1t-103 1q-14 -1 -22 -1.5t-11 23.5z" />
<glyph unicode="8" horiz-adv-x="921" d="M14 1359q19 85 62 162q18 32 65 74q68 59 150 77q45 10 89.5 7.5t91.5 -8.5q52 -9 130.5 -30t123.5 -56q58 -46 80 -96.5t28 -158.5q8 -129 -41.5 -243.5t-134.5 -207.5q-24 -27 -40 -39t-34 -30q-15 -15 20 -43q31 -27 61.5 -52t57.5 -56q33 -37 69 -98q86 -149 46 -339 q-19 -86 -59 -163q-19 -35 -64 -74q-67 -60 -148 -80q-46 -11 -90.5 -9.5t-90.5 7.5q-36 5 -72 11.5t-69 18.5q-24 9 -60 23t-55 28q-60 43 -80.5 93.5t-29.5 158.5q-10 126 34.5 239.5t125.5 208.5q1 1 30 29.5t45 42.5q22 20 15 25t-24 20q-28 24 -46.5 36.5t-41.5 40.5 q-30 35 -55.5 67.5t-48.5 73.5q-81 149 -40 340zM152 1308q-22 -129 52 -231q20 -29 32 -41t37 -39q24 -30 62 -51q48 -29 69.5 -28.5t67.5 34.5q36 26 75 85q54 79 98.5 170.5t-2.5 193.5q-17 34 -45 52.5t-82 42.5q-27 12 -51.5 18.5t-51.5 13.5q-48 11 -80 5 q-72 -15 -117 -85q-20 -30 -39 -67t-25 -73zM203 360.5q-42 -92.5 7 -191.5q16 -35 45 -53t84 -40q34 -15 103 -30q126 -30 196 84q18 30 36.5 67.5t24.5 73.5q20 127 -56 230q-32 41 -69 78q-20 18 -65 51q-46 30 -68.5 27.5t-67.5 -36.5q-33 -25 -74 -86 q-54 -82 -96 -174.5z" />
<glyph unicode="9" horiz-adv-x="894" d="M1 787q1 36 26 95q23 55 69 107q33 34 79 60q50 27 116 46q33 11 68.5 20.5t71.5 12.5q28 1 63 4t62 -2q73 -13 116 -48t97 -128q25 -45 38 -93.5t21 -94.5q24 -144 -22 -300q-23 -78 -57.5 -155.5t-67.5 -150.5q-15 -34 -33 -69.5t-34 -67.5q-44 -84 -96 -191 q-22 -42 -47.5 -83.5t-50.5 -84.5q-15 -24 -32 -52.5t-35 -52.5q-9 -12 -15.5 -18.5t-18.5 -24.5q-10 -13 -20 -7q-27 17 -49.5 23t-46.5 27q-30 25 -25 33t29 37q30 39 46 55t40 49q37 51 90 138q60 100 94 173q27 56 42 126q7 33 -1 36t-16 4q-21 3 -42.5 7t-42.5 10 q-60 15 -111 40q-43 17 -104 60q-71 48 -110 111q-55 86 -75 177q-19 77 -16 172zM159 654q8 -58 47 -118q34 -54 105 -92q30 -17 55 -26t61 -20q35 -13 60 -14q55 -1 74 7t46 58q19 36 30 110q7 49 9.5 72t6.5 77q8 140 -90 220q-30 24 -63.5 28t-92.5 2 q-33 -1 -91.5 -11.5t-84.5 -30.5q-63 -49 -72 -133q-8 -71 0 -129z" />
<glyph unicode=":" horiz-adv-x="321" d="M2 958q-10 62 34 113q0 2 20.5 15t33.5 16q29 5 49 3q40 -6 67 -30q21 -22 31 -56q5 -20 4 -44q0 -17 -8 -47q-11 -41 -39 -62q-18 -14 -49.5 -13.5t-50.5 6.5q-27 6 -44 21q-39 31 -48 78zM47 463q-7 42 10 72q10 19 39 31.5t50 16.5q25 4 49 -1q41 -13 73 -53 q38 -47 18 -116q-1 -3 -15 -24.5t-22 -26.5q-29 -18 -44 -22q-39 -13 -73 0q-29 9 -52 38q-13 14 -21 38q-6 11 -12 47z" />
<glyph unicode=";" horiz-adv-x="266" d="M1.5 226q-1.5 2 1.5 44q1 26 5 40q5 27 8.5 76t7.5 102q1 18 9 19q29 3 46 5q32 2 48 1q38 -2 48 -2t7 -39q-3 -24 -11.5 -53.5t-9.5 -53.5q0 -19 -2 -53v-31q0 -28 3 -44q1 -4 2 -8.5t3 -7.5q4 -18 -6 -22l-6 -2t-6 -1q-12 -5 -19 4q-10 9 -13 11q-37 15 -77 14 q-37 -1 -38.5 1zM4 982q1 14 12 47q13 39 43 59q18 12 49 9t51 -9q25 -8 43 -24q23 -22 29 -39t12 -42q11 -58 -40 -111q-2 -2 -21 -13.5t-35 -13.5q-28 -4 -50 1q-38 6 -64 34q-21 22 -27 58q-4 18 -2 44z" />
<glyph unicode="?" horiz-adv-x="972" d="M2 1338.5q-7 6.5 19 35.5q32 34 79 67q116 81 250 108.5t267 -32.5q44 -20 85 -47q69 -49 125 -115q24 -28 46 -88q53 -147 -22 -288q-23 -43 -49 -87.5t-59 -79.5q-58 -62 -108 -125q-25 -32 -26.5 -79t-4.5 -77q-3 -31 0 -62.5t6 -61.5q1 -18 -0.5 -22t-29.5 -6 q-74 -4 -111 -4q-35 0 -36.5 6t-9.5 46q-6 31 -6.5 54t-0.5 57q0 37 5 80.5t17 79.5q26 82 90 144q41 41 63 59.5t55 51.5q20 20 35 41t31 44q26 37 31 78q10 91 -63 174q-83 91 -183 113q-53 11 -129 -2q-66 -13 -121 -46q-39 -22 -61 -41.5t-52 -50.5q-13 -15 -19 -10 q-20 12 -39.5 25t-37.5 29q-29 25 -36 31.5zM419 119q0 6 11 46q14 40 43 60q18 12 49.5 9t51.5 -9q27 -9 43 -24q30 -30 40 -81q13 -61 -39 -111q-23 -20 -56 -26q-26 -3 -50 1q-39 7 -64 33q-20 22 -28 58q-4 14 -1 44z" />
<glyph unicode="@" horiz-adv-x="1306" d="M1 669q-3 84 11.5 172t53.5 166q67 133 190 226.5t278 111.5q55 6 108 2.5t107 -9.5q114 -14 211 -66q114 -60 199 -196t82 -280q-4 -177 -49.5 -268t-98.5 -127q-72 -49 -168.5 -54.5t-144.5 21.5q-30 17 -43.5 39t-16.5 34q-6 26 -18 25q-20 -3 -39.5 -7t-38.5 -6 q-144 -18 -253 41q-63 33 -93 99.5t-24 135.5q4 60 38.5 126t82.5 103q65 50 157 66q36 6 69.5 3.5t70.5 -2.5q23 0 23 4v28q-2 28 0 42q3 28 40 27q24 -2 48 -1.5t48 -3.5q19 -4 17 -35q-5 -138 -1 -295q2 -57 0 -116.5t4 -114.5q4 -55 14 -72q32 -63 110.5 -31t105.5 175 q15 81 19.5 160.5t-22.5 157.5q-48 134 -183 196q-20 9 -36 18t-39 15q-133 29 -245 8q-109 -22 -200 -73.5t-133 -139.5q-46 -98 -68.5 -219.5t34.5 -218.5q22 -39 40 -63.5t51 -47.5q28 -21 68 -38t64 -26q54 -21 115 -26t120 -8q36 -2 43 -8t8 -24q1 -23 7.5 -45 t12.5 -44q6 -25 -18 -31q-80 -20 -143 -11q-198 25 -362 127q-59 35 -97 83q-50 60 -79 146q-12 33 -24 73.5t-13 75.5zM377 729.5q-8 -65.5 29 -100.5q18 -18 70 -31q38 -9 98 -7q70 1 107 9q24 5 27 39q3 48 0.5 97.5t-3.5 99.5q-2 35 -5 40q-7 7 -35 14q-50 12 -102 15.5 t-99 -23.5q-16 -10 -49 -51q-30 -36 -38 -101.5z" />
<glyph unicode="A" horiz-adv-x="795" d="M1 623q5 62 39 135q43 97 110 148q80 61 196 82q34 4 65 4h21q41 -2 87 -2q28 -1 28 4.5v34.5q0 12 -1 25.5t1 27.5q3 29 12 31q6 1 21 1h18q29 -2 58.5 -1t59.5 -5q24 -5 23 -12.5t-1 -30.5q-4 -94 -4 -192q0 -86 3 -174q1 -26 1 -52q0 -46 -2 -92l-2 -48q0 -48 5 -94 q4 -50 7.5 -93.5t8.5 -91.5q1 -18 1 -28q0 -13 -2 -11q-4 3 -50 3q-27 0 -50 -7t-49 -11q-5 -1 -9 -1q-20 0 -20 22q-1 18 -0.5 35t-1.5 35q-4 32 -18 30q-25 -3 -49 -7.5t-48 -7.5q-47 -6 -89 -6q-54 0 -99 10q-66 14 -125 46q-67 35 -109 108q-16 27 -27 82q-9 47 -9 88 v15zM156 641q-2 -16 -1 -33q0 -21 2 -44q5 -40 32 -66q19 -20 39.5 -26t47.5 -12q39 -9 99 -9h23q33 0 65.5 2t66.5 9q27 5 29 11t4 37q1 20 1 40v20q-1 30 0 62v18q0 22 -2 42q-2 28 -2 62q-2 42 -7 50q-7 8 -43 18l-60 14q-26 6 -52 6h-7q-81 -2 -130 -30 q-21 -13 -33.5 -29t-27.5 -34q-40 -50 -44 -108z" />
<glyph unicode="B" horiz-adv-x="827" d="M2 277q5 30 11 90q2 17 2.5 33.5t2.5 34.5q3 35 5 55q0 13 1.5 25.5t2.5 26.5q2 35 3 63.5t5 65.5q5 48 13 131q6 53 9 105q1 28 3.5 46.5t5.5 46.5q3 36 4.5 71.5t4.5 72.5q3 44 9 85t10 85q1 13 2.5 26t3.5 27q6 70 8 105q2 29 5 50.5t5 51.5q3 49 9 99q2 24 4.5 48.5 t5.5 49.5q1 22 1.5 44.5t2.5 45.5q2 76 2 130q0 13 0.5 25t0.5 33q0 15 14 15h2q31 -5 60 -4t61 -8q37 -11 38 -23.5t-4 -49.5q-8 -46 -15 -85.5t-13 -82.5q-2 -12 -4 -22.5t-2 -21.5q-6 -41 -15 -83q-8 -47 -10 -73q-7 -71 -8 -105q-2 -21 -3.5 -40t-2.5 -43l-2 -28t-1 -27 q-1 -15 -2 -28.5t-1 -27.5q-3 -33 -7.5 -56.5t28.5 -24.5q17 -1 61 -8q63 -10 104 -27q29 -13 55.5 -25t55.5 -27q11 -6 23.5 -14t21.5 -13q46 -33 79 -71q5 -6 16.5 -20t15.5 -20q17 -26 25 -40t20 -46q3 -9 17 -44q3 -12 7.5 -23t7.5 -23q12 -51 19 -109q1 -12 2 -25 q0 -18 -3 -38q-8 -50 -25 -95q-17 -38 -30 -59q-18 -31 -38 -50q-42 -40 -79 -59q-40 -23 -63 -31q-67 -25 -104 -33q-63 -16 -88 -18q-14 -1 -38 -2.5t-36 -1.5q-22 -1 -47 -2.5t-46 0.5q-18 1 -9 -19t13 -26q26 -36 -8 -37h-5q-11 0 -20 3q-11 4 -26 7q-43 9 -75 9h-11 q-30 -4 -41 -4q-8 0 -8 18q0 8 2 19zM190 494q0 -10 41 -10q49 -2 75 -3h14q24 0 59 2q49 2 107 15q46 11 69 29q31 24 45 51q21 39 25 83q5 41 5 72q0 10 -1 19q-3 40 -9 63q-15 44 -45 92q-16 23 -40 44q-41 34 -65 47q-31 16 -52 22.5t-56 18.5q-44 12 -64 14 q-40 3 -48 4v0q-8 0 -12 -27q-4 -26 -8.5 -38.5t-6.5 -45.5q-2 -21 -6 -61q-3 -28 -5.5 -61.5t-6.5 -60.5q-2 -9 -1.5 -19t0.5 -19q-2 -20 -4.5 -38t-2.5 -37q-1 -29 -3.5 -54t-2.5 -49z" />
<glyph unicode="C" horiz-adv-x="662" d="M0 688q1 41 15 90q7 29 30 81q10 21 20 43t24 43q15 22 29 46t32 45q34 40 94 80q93 61 200 96q33 11 101 27q26 6 30.5 6t11.5 -27q8 -37 14 -88q4 -33 8 -47t-30 -15q-58 -4 -130 -19q-51 -11 -100 -42q-25 -16 -70 -62q-30 -31 -52 -68q-15 -26 -26.5 -45.5 t-19.5 -47.5q-12 -40 -12 -81q0 -9 1 -18q4 -70 26 -130q22 -68 58 -114q20 -29 55.5 -52t67.5 -40q28 -16 89 -34q59 -21 114 -34q51 -12 51 -21t-8 -62q-3 -12 -4.5 -23.5t-3.5 -22.5q-7 -36 -8 -42q0 -3 -9 -3t-29 4q-12 2 -38 6q-24 5 -47.5 9t-46.5 11 q-32 9 -61.5 18.5t-57.5 24.5q-44 22 -75 46q-42 29 -79 73q-41 46 -52 65q-15 24 -30.5 47t-28.5 49q-24 46 -34 84q-19 77 -19 144z" />
<glyph unicode="D" horiz-adv-x="819" d="M2 506q5 60 31 131q37 101 95 166q52 59 127 100q41 23 105 45q56 20 115 29q54 6 95 6h11q32 -2 29.5 21t0.5 57q3 27 3 55t2 56q1 24 1.5 43t1.5 40q1 30 1 60v29q-1 44 -3 90q-4 74 -8 149l-8 150q-3 37 0 49t42 19q19 4 37 4q12 0 24 -2q29 -4 61 -3q15 0 14 -16 q-3 -21 -2.5 -30t-1.5 -27q-16 -123 -18 -220q-1 -33 -1 -66v-33.5v-32.5q0 -33 -1 -66q-2 -30 -2.5 -51.5t-2.5 -51.5q-2 -22 -2 -43q0 -19 2 -37q2 -40 2 -78q-2 -98 -2 -195v-65v-43q0 -108 -4 -211q-4 -75 -4.5 -156t-4.5 -157q-3 -31 -3 -62v-61q-1 -14 -1 -29 q0 -30 3 -62q1 -35 -10 -35q-9 0 -40 7q-20 5 -43 5q-21 0 -44 -4q-15 -1 -27.5 -4t-24.5 -1q-35 5 -4 37q15 17 17 33q0 11 -8 11q-54 1 -130 16.5t-122 33.5q-54 21 -107.5 49t-95.5 70q-66 65 -84 145q-12 58 -12 106q0 16 1 30zM156 454v-9q0 -48 19 -79 q24 -42 42.5 -56.5t60.5 -30.5q39 -15 102 -28q52 -11 75 -11.5t75 -3.5q9 -1 16 -1q25 0 25 9q0 11 4 51q2 24 3 49t3 54q2 54 4 115q1 30 1 60.5t-1 60.5q-2 39 -3 73.5t-3 72.5q-2 28 -10.5 29t-46.5 1q-32 0 -63 -7q-37 -7 -59.5 -12t-54.5 -18q-137 -59 -168 -167 q-21 -70 -21 -152z" />
<glyph unicode="E" horiz-adv-x="1042" d="M4 975q-1 5 -1 9q0 20 16 24q18 4 36 2t37 1q20 2 24 37q2 23 2 49q0 33 -3 70q-3 33 -4 66t-1 66t0.5 66.5t0.5 66.5q0 29 -1 42t-31 14q-44 1 -43 30q0 30 1 52t1 52q-2 36 4 36h8q11 0 37 -1q37 -2 74.5 -3.5t75.5 -3.5q69 -3 129 -3q30 0 57 1h62q60 0 112 -1 q88 -3 174 -9q36 -3 40 -4.5t3 -36.5q-2 -27 -7.5 -52t-3.5 -46q4 -33 -32 -34q-11 -1 -58 2q-31 0 -97 7q-40 2 -61 3q-56 4 -84 5q-27 0 -55 3t-56 3q-21 0 -46 0.5t-26 -12.5q-6 -33 -6 -65t-2 -65q-2 -29 -4 -58.5t-2 -57.5q-1 -28 -2 -53.5t0 -54.5v-36t3 -36 q3 -37 5.5 -38.5t40.5 1.5q19 1 39 1q24 0 48 -2q44 -4 89 -3q44 -2 83 -4t79 -2q36 -1 71 -1l71 1q36 0 71.5 0.5t71.5 1.5q34 0 40.5 0.5t8.5 -30.5q0 -15 -3.5 -31.5t-4.5 -38.5q-5 -66 -59 -66h-6q-34 1 -51.5 2t-47.5 2q-33 0 -64.5 1t-63.5 1q-47 0 -94 1t-95 1 q-80 0 -159 -3q-69 -3 -70 -15t-2 -76q0 -21 -3.5 -38.5t-4.5 -34.5q-4 -39 -4 -75t-2 -69q-2 -32 2 -63.5t7 -58.5q2 -13 1.5 -22t2.5 -22q6 -32 7 -41.5t35 -6.5q34 2 70 6t76 7l72 4t72 5q42 2 46.5 -5.5t-0.5 -43.5q-3 -19 -3 -35q0 -30 11 -50q14 -29 -16.5 -26.5 t-49.5 2.5q-30 -2 -58 -3t-58 -7q-67 -15 -117 -20q-27 -3 -48.5 -2t-14.5 -33q6 -31 -36 -33h-14q-24 0 -42 2q-22 4 -53 -2q-8 -2 -14 -2q-15 0 -14 12q1 16 -4 42q-6 28 -6.5 56.5t-1.5 57.5q-2 33 0 60.5t2 65.5q0 66 -3 134q-3 52 -4 106t-2 106q-1 18 -2.5 36t-1.5 36 q-1 26 -4.5 27.5t-29.5 -1.5q-56 -7 -54 15q0 7 1 18q0 21 -2 56q-1 20 -7 62z" />
<glyph unicode="F" horiz-adv-x="975" d="M5 917q0 33 -3 66q-2 31 19 35q20 3 38.5 -1.5t39.5 -1.5q24 1 23 8t5 28q4 18 5.5 38.5t4.5 40.5q1 12 0.5 24t-0.5 24q0 35 0.5 70t5.5 71q5 35 11 69t18 69q15 42 34 67.5t46 55.5q44 48 113 66q36 10 64 16q24 6 64 5h13q107 -4 184 -20q55 -11 134 -42 q18 -8 34.5 -18t34.5 -17q30 -16 33 -18q1 -1 1 -3q0 -10 -8 -45q-9 -33 -20 -63t-11 -57q0 -26 -35 -11q-15 6 -29.5 15t-29.5 17q-25 11 -50 22.5t-51 22.5q-32 14 -62 20q-56 13 -89 13q-52 -3 -70 -9q-46 -16 -68 -34q-45 -40 -65 -76q-15 -30 -20.5 -64.5t-7.5 -67.5 q-3 -30 -6.5 -57.5t-4.5 -57.5q-4 -52 -4 -77q0 -39 3 -41t43 -2q90 -1 99.5 -5t101.5 -9q36 -3 43.5 -3t6.5 -33q-1 -16 -6.5 -33.5t-8.5 -40.5q-6 -37 -19 -54t-56 -11q-61 8 -72 8q-3 0 -3 -1q2 -1 -11 -1q-18 0 -64 2q-13 1 -24 1q-50 1 -51 -11q-1 -14 -9 -86 q-2 -18 -7 -37.5t-8 -36.5q-7 -41 -9.5 -78t-7.5 -73q-7 -41 -7 -132q0 -46 2 -104q5 -174 9 -207q3 -31 -35 -31h-7q-35 1 -58.5 6.5t-56.5 1.5q-31 -4 -29 13t-1 45q-2 17 -2 39q0 35 5 81q3 35 6 64.5t5 69.5q1 36 4 72t4 72q1 55 5 112.5t7 113.5v37.5t1 38.5 q2 28 -2 30t-31 1h-12q-42 0 -43 18z" />
<glyph unicode="G" horiz-adv-x="1077" d="M0 559v25q0 25 1 56q0 33 8 91q11 89 45 151q35 62 79 104q30 29 73 55.5t77 41.5q71 32 129 45q137 29 263 33h41q37 0 54 -1q26 -2 29 -52q0 -15 1 -33.5t1 -42.5q-2 -64 -30 -64q-3 0 -7 1q-44 11 -96 11q-23 0 -48 -2q-81 -7 -145 -22q-58 -14 -115 -46 q-48 -28 -108 -90q-39 -39 -60 -89q-6 -16 -8.5 -33.5t-5.5 -33.5q-3 -20 -3 -46q0 -20 2 -44q1 -54 12 -89q12 -47 32 -77q12 -20 40 -53q14 -17 31.5 -29t32.5 -22q24 -17 73 -35q63 -22 134 -37q40 -9 75 -9q13 0 25 1q18 2 30 3t22 3q37 6 38.5 10.5t4.5 39.5 q0 18 1.5 37.5t2.5 38.5q2 42 2 63q0 71 -2 84.5t-75 15.5q-75 2 -75 4q0 1 -9 1q-17 0 -66 -2q-44 -3 -55.5 15t-14.5 55q-2 24 -5 34t-2 26q1 33 8 32.5t44 -0.5h71.5h49.5h26q26 0 55 -1q51 -3 104 -3h17q61 1 122 3q20 0 39 0.5t39 -3.5q17 -5 17 -24q0 -5 -1 -11 l-6 -26t-3 -25q-3 -34 -3 -57l1 -24q0 -16 -30 -16q-11 0 -26 2q-28 3 -32.5 0.5t-2.5 -37.5q2 -62 5 -105t6 -73q2 -45 2 -74.5t2 -63.5q0 -19 1.5 -34t0.5 -37q-2 -27 -22 -27q-33 0 -80 -5q-19 -3 -69 -5h-48h-20q-36 0 -100 2q-80 3 -169 23q-14 3 -47.5 11.5 t-55.5 17.5q-17 6 -51 21t-58 30q-23 13 -52 36t-47 48q-24 32 -39.5 57.5t-30.5 63.5q-10 22 -22.5 60.5t-16.5 71.5q-6 44 -7 79z" />
<glyph unicode="H" horiz-adv-x="973" d="M0 615q0 10 30 17q21 4 27 9q13 12 13 43q0 10 -1 23q-4 32 -7 47q-2 12 -3.5 23.5t-2.5 23.5q-8 46 -14 92.5t-15 93.5q-6 30 -10.5 59t-12.5 56q-3 9 -3 24t11 16q15 1 31.5 -1.5t36.5 -0.5q18 1 54 5q49 5 56 -1t8 -51q0 -13 -0.5 -25.5t-0.5 -24.5q-1 -20 -1 -39 q0 -28 2 -53q0 -14 1 -28t2 -27q0 -33 4.5 -64t7.5 -59q3 -43 20 -77q9 -18 20.5 -15t34.5 7t46 7t47 8q69 14 175 32q11 1 22 3t23 4q11 2 22 3.5t23 4.5q23 4 34 3.5t10 23.5q-1 28 1 45.5t1 50.5q-1 12 -1.5 24t-0.5 24q-3 30 -5 61t-2 64q0 26 -2 78v21v22q-4 31 -4 26 q0 30 11 30q0 -1 2 -1q14 -4 35 -4h16h17q17 0 34.5 0.5t35.5 0.5q27 -2 31.5 -4t9.5 -32q1 -13 -2 -29q-15 -60 -16 -99q-1 -26 -1 -52q0 -38 2 -74q0 -15 -0.5 -30t-0.5 -30q0 -66 8 -150q3 -35 3 -71v-12q0 -8 -1 -17q0 -34 2 -69q1 -47 1 -86t7 -79q6 -44 9 -70t33 -91 q3 -6 3 -11q0 -18 -39 -17h-10h-10q-55 0 -115 -19q-35 -11 -35.5 -11t-2.5 42q-3 43 -4.5 87t-3.5 89q-3 60 -4 88q-2 23 -5 48t0 49q2 36 -44 30.5t-70 -9.5q-75 -15 -146.5 -31t-144.5 -31q-54 -11 -52 -13.5t11 -37.5q8 -32 15.5 -60t13.5 -61q2 -15 5 -29.5t6 -29.5 q3 -16 5 -31.5t8 -28.5q15 -33 13 -46t-42 -10q-28 1 -49.5 -3t-47.5 -9q-42 -10 -46.5 13.5t-7.5 61.5q-2 12 -3 25l-2 26q-1 15 -5 50q-4 34 -6 50q-4 27 -5 46t-28 18q-4 0 -14 -2q-29 -6 -30.5 6.5t-7.5 49.5q-4 18 -8 58z" />
<glyph unicode="I" horiz-adv-x="306" d="M1 246q0 17 5 50q6 38 6 93v16q-1 35 -1.5 71t-0.5 72v15q0 30 3 61q4 38 7 77q3 44 7 132q0 21 1 44t2 45q1 19 8 20q18 3 47 7q30 4 47 4h48t9 -39q-1 -28 -6.5 -52.5t-10.5 -52.5q-5 -31 -11 -99q-6 -39 -6 -45q-2 -32 -4 -60t-2 -60q0 -29 -1 -86q0 -18 2 -54 q0 -37 1 -55q1 -19 5 -55q0 -9 1 -16.5t0 -14.5q0 -27 5 -44l2 -8t3 -7q6 -19 -4 -22q-17 -8 -23 -8q-4 0 -4 3q0 7 -18 14q-31 11 -66 11h-11q-38 -3 -39 -1t-1 44zM43 1307q7 28 34 55q12 12 36 24q15 8 46 16q16 4 32 4q22 0 41 -8q20 -10 34.5 -38t20.5 -47q3 -19 3 -33 q0 -9 -1 -16q-6 -32 -17 -46t-29 -32q-35 -32 -76 -32q-19 0 -39 6q-35 10 -53 33q-18 18 -26 42q-10 22 -10 44q0 14 4 28z" />
<glyph unicode="J" horiz-adv-x="829" d="M2 -384v6q0 11 4 43q6 34 14.5 64.5t7.5 57.5q0 26 35 14q15 -6 30 -14t31 -14q25 -9 50.5 -19t52.5 -19q36 -12 64 -16q48 -6 77 -6h13q48 5 69 13q45 20 65 39q49 52 63.5 98t17.5 116q1 29 3.5 56t3.5 59q2 88 2 105v5v-2q-1 0 4 110q1 23 1 46q0 17 -0.5 34t-0.5 33 q0 22 1 43v23q0 67 -13 213q-16 173 -22 206q-6 34 40 34q34 0 57.5 -3.5t58.5 3.5q30 6 29 -11.5t4 -44.5q7 -47 7 -122q0 -36 -1.5 -64.5t-1.5 -67.5q-1 -21 -1 -45q0 -46 3 -100q1 -37 1 -75v-37q-1 -56 -1 -111q-1 -34 -1.5 -64.5t-0.5 -63.5q0 -23 -0.5 -45.5 t-0.5 -45.5q0 -36 1 -71v-24q0 -24 -1 -48q-3 -35 -6.5 -69.5t-12.5 -70.5q-12 -43 -29.5 -70t-41.5 -58q-39 -48 -108 -74q-36 -12 -63.5 -19.5t-75.5 -10.5q-37 -2 -74 -2h-19q-47 1 -92 8q-32 6 -67.5 14t-69.5 20q-19 6 -36.5 14.5t-35.5 15.5q-31 12 -34 14zM542 1196 q-5 16 -5 33q0 20 8 40q11 28 39 50q18 13 39 21q15 6 47 10q10 2 19 2q28 0 53 -14q18 -12 30 -41t15 -49q1 -13 1 -24q0 -15 -2 -25q-10 -31 -23 -44t-33 -28q-32 -24 -67 -24q-24 0 -49 10q-38 15 -50 38q-16 24 -22 45z" />
<glyph unicode="K" horiz-adv-x="1079" d="M3 1731q-1 3 -1 6q0 27 40 29q34 1 58 -2.5t58 3.5q8 2 14 2q16 0 15 -13q-1 -17 5 -44q6 -30 6.5 -61t2.5 -61v-20q1 -24 -1 -44q-1 -16 -2 -35q0 -15 1 -33q1 -36 2 -72.5t2 -72.5q3 -56 3 -112v-111q0 -56 -6 -132q-2 -25 -3 -43q0 -37 9 -49q12 -20 54 13 q28 21 47 37q73 63 122 118q49 56 102.5 108.5t106.5 106.5q67 68 145 167q11 15 18 20.5t20 22.5q10 13 21 1q21 -23 44.5 -41t41.5 -45q21 -33 14.5 -43.5t-34.5 -34.5q-57 -50 -112.5 -99.5t-111.5 -98.5q-34 -30 -66.5 -59t-62.5 -65q-14 -16 -28 -29t-29 -30 q-19 -21 -38.5 -41t-37.5 -41q-5 -6 -10.5 -11.5t-12.5 -15.5q-8 -11 5 -21q14 -12 21 -19q109 -98 214.5 -201t216.5 -199q28 -25 43 -38t45 -35q22 -17 49 -39q19 -17 19 -35q0 -14 -12 -29q-9 -10 -16 -20.5t-14 -19.5t-11.5 -18.5t-10.5 -18.5q-20 -31 -27.5 -22.5 t-37.5 34.5q-42 36 -82 73.5t-81 75.5q-80 72 -158.5 145.5t-157.5 146.5q-30 28 -62.5 54.5t-62.5 55.5q-21 19 -33.5 28.5t-30.5 28.5q-18 18 -18 0q3 -39 3 -78v-78v-43v-40q-1 -16 -1 -32q0 -40 4 -81q3 -50 10.5 -98t12.5 -96q3 -44 8.5 -84t11.5 -85q4 -36 2 -50 t-40 -20q-32 -5 -61.5 -5.5t-60.5 -0.5q-17 0 -15 15q3 29 3 58v61t3 68q1 22 1 45v46q-3 126 -16.5 288.5t-15.5 264.5q-2 69 -4 170q-1 50 -1 94t1 82v80q0 6 -1 11q0 33 3 65q1 11 1 24q-1 67 -17 211q-20 173 -25 206z" />
<glyph unicode="L" horiz-adv-x="252" d="M0 1507q0 12 0.5 21t0.5 22q1 17 34 17h22.5h23.5q17 -2 46 -5q40 -4 45 -6.5t2 -39.5q-4 -50 -4 -88q0 -26 2 -47q3 -42 5.5 -83.5t2.5 -83.5q0 -46 1 -91t1 -90q0 -51 1 -101t7 -100q4 -41 4.5 -82.5t4.5 -82.5q3 -38 6 -75t7 -74q3 -29 4 -56.5t4 -54.5 q3 -48 10.5 -90.5t8.5 -85.5l1 -41q0 -4 -41 -10q-32 -4 -49 -7q-11 -2 -21.5 -5.5t-20.5 -6.5q-14 -3 -23 -3q-13 0 -12 7q1 12 -2 51q-5 54 -7.5 109.5t-5.5 110.5q-3 44 -4 86.5t-4 87.5q-6 65 -12 130.5t-8 130.5q-3 87 -5.5 175.5t-5.5 175.5q-3 42 -7.5 83t-5.5 83 q-1 30 -3.5 59t-2.5 60z" />
<glyph unicode="M" horiz-adv-x="1362" d="M0 56q0 23 1 35q2 32 5.5 64.5t5.5 65.5q2 43 4.5 90.5t7.5 91.5q2 18 2 35t1 35q1 42 5 83.5t7 83.5q0 16 0.5 33t-0.5 33v22q0 22 1 44q1 56 3 114q1 23 1 46q0 34 -2 68q-2 18 -0.5 27.5t1.5 28.5q0 6 0.5 13.5t0.5 15.5q1 28 39 32q35 3 66.5 3.5t66.5 1.5 q30 0 39 -0.5t0 -27.5q-5 -14 -5.5 -28.5t-3.5 -28.5q-5 -22 12.5 -33t66.5 -80q28 -40 57 -79.5t56 -78.5q33 -49 61 -87.5t67 -92.5q34 -47 47 -76q8 -22 12.5 -31.5t22.5 14.5q3 4 16 28.5t17 33.5q60 146 76 162.5t72 164.5q30 80 53 152q2 7 4.5 14t5.5 14q4 14 22 17 q6 2 11 2q30 6 46 8q30 2 46 3q26 2 39 4q6 0 10 -10q2 -10 2 -15q3 -15 3 -16q3 -34 7.5 -67.5t13.5 -66.5q19 -75 37 -163q17 -83 23.5 -123t12.5 -71t15.5 -70t32.5 -119q8 -27 14 -54t13 -54q20 -83 45 -150q2 -6 4 -20l8 -41q0 -5 -38 -16q-32 -10 -47 -15 q-11 -4 -20.5 -9.5t-19.5 -9.5q-18 -6 -26 -6t-8 4q-2 10 -12 49q-14 54 -26 107.5t-24 107.5q-11 42 -19.5 84.5t-18.5 85.5q-15 54 -17 63.5t-1.5 9.5t-2 9l-17.5 63q-10 37 -15 75.5t-11 80.5q-6 41 -7.5 55t-9.5 -7q-24 -58 -49 -117.5t-28 -72.5q-10 -33 -23.5 -62 t-27.5 -59q-15 -30 -35.5 -64.5t-23.5 -67.5q-2 -24 12.5 -38t26.5 -31q15 -23 14.5 -26t-25.5 -17q-25 -15 -38.5 -40.5t-37.5 -31.5q-24 -5 -19.5 -15.5t-9.5 -16.5q-15 -6 -13 -6q-29 0 -34.5 6.5t-25.5 16.5q-22 9 -35.5 13.5t-36.5 13.5q-25 9 -24 17t10 24 q22 40 22 64q0 4 -1 7q-4 21 -16 39t-24 38q-9 15 -23 27.5t-23 28.5q-39 68 -66 112t-65 113q-8 13 -21 39t-21 40q-6 9 -14.5 24.5t-14.5 26.5q-11 15 -14 19q-30 35 -36 13l-6 -22q2 -18 5 -56q1 -16 2 -31q0 -27 -4 -53q-5 -42 -6 -82q-1 -37 -3.5 -58t-1.5 -61 q0 -82 -5 -165t-5 -165q0 -21 -0.5 -28.5t6.5 -32.5q2 -7 5 -13t6 -13q7 -18 -7 -12q-5 2 -39.5 6.5t-38.5 4.5q-13 0 -26.5 0.5t-26.5 1.5q-13 0 -26 -2t-26 0q-19 2 -20 33z" />
<glyph unicode="N" horiz-adv-x="1299" d="M0 54q0 26 1 49q3 32 5 56.5t5 60.5q2 38 4.5 92t4.5 90t2 54.5t2 46.5q1 28 2.5 61t4.5 75q0 16 0.5 33t-0.5 33.5t-1 33.5t1 33q2 56 1.5 113t-1.5 114q-2 22 -0.5 43t1.5 42q0 28 39 33q35 3 66 4t66 2h40t0 -27q-8 -21 -12 -39t-11 -39q-8 -21 5.5 -28.5t30.5 -26.5 q30 -36 62.5 -70.5t65.5 -67.5q25 -27 50.5 -54t52.5 -52q25 -25 49.5 -53.5t48.5 -55.5q16 -20 34.5 -38t36.5 -36q24 -26 54.5 -51.5t55.5 -52.5q15 -17 32 -30t30 -31q12 -21 19 -29t19 19q2 5 9 31.5t10 35.5q11 58 25.5 116t26.5 117q9 46 19 93.5t20 92.5 q11 53 24.5 102.5t22.5 103.5q13 88 20 159q0 7 1.5 14.5t2.5 15.5q1 13 26 13q18 0 76 -11t68 -15q18 -10 18 -17l-7 -21q-18 -48 -33 -103q-3 -11 -16.5 -73t-16.5 -79q-10 -51 -21.5 -101.5t-22.5 -99.5q-14 -57 -26 -113t-21 -111q-12 -77 -25 -129q-8 -32 -21 -70 q-10 -29 -10 -55q0 -8 1 -16q3 -24 20.5 -35t32.5 -25q18 -19 18.5 -22.5t-21.5 -21.5q-21 -19 -28.5 -47.5t-30.5 -38.5q-22 -10 -16 -19t-6 -18q-17 -11 -30 -11q-4 0 -8 1q-15 5 -37 10q-23 5 -37 7t-38 6q-27 3 -27.5 11t5.5 26q9 30 9 51q0 13 -4 22q-9 20 -24.5 35.5 t-30.5 31.5q-12 13 -26.5 25.5t-27.5 25.5q-28 25 -59 58q-16 16 -35 37.5t-33 35.5q-25 24 -48.5 47.5t-45.5 51.5q-38 45 -71.5 80t-71.5 79q-46 49 -68 81q-24 32 -62 70q-18 17 -14 -12q7 -47 7 -55q0 -42 -1 -78t-3 -77q-2 -35 -3 -61t-2 -73q-2 -83 -2.5 -148 t-2.5 -146q-1 -21 -1.5 -40.5t5.5 -45.5q2 -12 12 -33q6 -17 -7 -12q-14 3 -43.5 6t-33.5 4h-27h-26t-26 -1.5t-27 -0.5q-19 1 -20 32z" />
<glyph unicode="O" horiz-adv-x="905" d="M5 933q6 41 22.5 84t28.5 67q15 31 32 62t36 56q34 44 65 66q35 24 77 40q28 10 48.5 16t60.5 10q26 3 53 2q55 0 116 -10q58 -11 109 -36q39 -22 66 -46t50 -48q12 -13 43 -67q16 -28 30 -81q9 -42 16 -90q3 -17 3 -41q0 -12 -1 -25q-3 -38 -8 -75.5t-17 -74.5 q-15 -50 -47 -98q-37 -54 -76 -86q-58 -46 -110 -71q-25 -13 -62 -23q-48 -12 -74 -14q-35 -4 -64 -4q-21 0 -39 2q-44 5 -78 16q-24 6 -51.5 20.5t-48.5 26.5q-59 33 -93 74q-25 28 -46 79q-33 74 -40 131q-5 37 -5 74q0 32 4 64zM188 839q0 -21 7.5 -45t13.5 -39 q10 -27 21 -48q21 -41 74 -67q30 -16 79 -23q24 -4 43 -3h14q36 1 67 12q29 9 56 30q25 21 39 40t33 43q8 11 21.5 37.5t18.5 38.5q9 23 17 61q5 27 5 46q0 8 -1 14q-7 51 -25 100q-13 27 -33 50q-26 28 -57 46q-33 19 -87 30q-26 5 -47 5q-24 0 -44 -6q-54 -19 -105 -59 q-53 -44 -72.5 -76t-28.5 -60q-10 -31 -10 -89q0 -18 1 -38z" />
<glyph unicode="P" horiz-adv-x="977" d="M1 103q2 32 2 56q2 49 26 46q12 -3 12 -4t13 -4q24 -6 23 0t2 30q1 21 -0.5 44t-1.5 45q0 32 1 64v32v32q-3 48 -5 98t-6 98q-4 43 -6 86t-3 87q-2 39 -4 79q-1 24 0 47v31v21q0 51 -7 127q-3 32 -6 41.5t27 9.5q25 0 47.5 5t46.5 10q25 5 33 5l1 -1q8 0 9 -27 q0 -14 -2.5 -23t-1.5 -25q1 -33 11.5 -38t58.5 -8q33 -2 61.5 -5.5t62.5 -5.5q57 -6 135 -25q33 -9 59.5 -19.5t56.5 -22.5q18 -8 45.5 -23t43.5 -24q15 -10 49 -37q52 -44 79 -90q18 -34 28.5 -79.5l19.5 -84.5q12 -58 12 -124q0 -40 -4 -83q-4 -39 -18 -80t-27 -77 q-7 -18 -21.5 -38.5t-28.5 -41.5q-14 -20 -42.5 -42.5l-47.5 -37.5q-41 -31 -98 -55q-21 -9 -46 -14.5t-49 -11.5q-64 -17 -120 -24q-10 -2 -51 -4q-29 -3 -53 -3q-12 0 -24 1q-22 1 -22 -23q0 -22 0.5 -63.5t3.5 -64.5q8 -70 15 -111t13 -92q3 -27 5.5 -54t6.5 -56 q5 -41 -3 -46q-16 -7 -41 -12t-49 -10q-11 -1 -21 -3.5t-19 -2.5q-47 0 -49 35q-2 21 2.5 43.5t4.5 44.5q-2 30 -4 44q-11 129 -14.5 144.5t-6.5 144.5q0 29 3 56q1 33 -22 31q-27 -2 -43 1t-30 3q-18 -1 -21 24q-2 13 -2 30q0 11 1 24zM228 816q-2 -14 -1 -28q0 -15 2 -29 q4 -37 4 -73q-1 -6 -1 -10v-11q0 -35 3 -71q1 -26 3 -49.5t4 -46.5q4 -49 4.5 -95t4.5 -94q0 -18 2.5 -35t4.5 -35q3 -33 4.5 -36.5t36.5 -7.5q9 -2 25.5 -3.5t25.5 -1.5q6 0 12 -1q32 -1 70 9q46 10 80 23q60 19 115 55q18 11 43.5 34.5t38.5 44.5q31 50 39 88q9 41 9 112 v14q-1 20 -5.5 51t-12.5 49q-22 47 -58 81q-24 21 -50.5 44t-56.5 35q-68 27 -128 38q-106 21 -194 24h-2q-24 0 -21 -22t-1 -53z" />
<glyph unicode="Q" horiz-adv-x="793" d="M1 738v17q0 53 16 118q21 79 90 143q43 40 98 64.5t109 45.5q46 18 123 29t131 11q8 0 8 11q-1 15 -15 34q-29 33 5 37h6q10 0 19 -2q12 -3 27 -5q32 -5 57 -5q16 0 30 2q28 5 39 6q10 0 10 -23q0 -6 -1 -13q-3 -30 -5 -90l-2 -62t0 -61q1 -31 1 -63q0 -47 -2 -96 q-2 -60 -2 -117v-38q0 -125 -6 -255t-9 -259q-1 -40 -3 -79.5t-2 -78.5q-1 -39 -1 -102q0 -49 -3 -98t-3 -99v-24q0 -43 2 -90q4 -59 7 -107q2 -25 2 -58q0 -15 -13 -15h-2q-32 3 -61 0q-9 -1 -18 -1q-21 0 -43 5q-38 9 -40.5 21t1.5 49q7 75 14 149t14 149q8 106 10 179 q0 47 1 95v20q0 39 -2 78q-3 33 1 57.5t-28 21.5q-18 -2 -31.5 0t-31.5 3q-70 5 -157 40q-57 22 -103 50q-74 43 -123 104q-56 66 -88 170q-23 72 -26 132zM155 777q-1 -11 -1 -22q0 -58 18 -123q27 -111 161 -174q31 -15 58 -21t63 -15q34 -8 55 -8l47 -1q8 0 11 29 q3 37 7 72t5 74q0 60 2 120.5t2 114.5v54t-1 50q-3 39 -2.5 48t-40.5 12q-32 2 -55 2q-15 0 -26 -1q-28 -2 -69 -8q-33 -6 -55 -13.5t-49 -13.5q-62 -17 -106 -87q-21 -35 -24 -89z" />
<glyph unicode="R" horiz-adv-x="1009" d="M1 15q3 21 2 30t2 28q4 33 5 62.5t7 66.5q5 33 5.5 69.5t0.5 70.5q-1 37 -1 74v11q0 32 3 63q3 55 3 111v19q0 22 -1 44q0 44 1 87v85.5v85.5q0 36 2 71t2 74q0 48 0.5 98t1.5 101v64t1 66v65.5t4 63.5q7 84 7 177q0 61 -2 91q-3 35 8 35q9 0 42 -7q17 -4 40 -4 q21 0 47 3q43 6 52 6q32 -6 4 -39q-5 -5 -16 -24.5t7 -19.5q10 0 20 -3t21 -4q12 -2 25 -3.5t26 -2.5q34 -4 51 -7q43 -7 108 -30q34 -12 100 -44q85 -43 131 -106q44 -61 57 -114q14 -66 15 -116q0 -31 -4 -66q-4 -28 -9 -42.5t-14 -40.5q-15 -38 -31 -65q-30 -50 -72 -103 q-21 -24 -51 -51q-21 -20 -72 -49q-25 -13 -54 -24t-55 -21q-11 -4 -21 -6.5t-19 -5.5q-18 -4 -1 -14q6 -5 12 -12t8 -8q50 -52 94 -99q59 -62 117.5 -123.5t117.5 -122.5q19 -21 38.5 -40t40.5 -39q26 -27 45.5 -42t46.5 -39q24 -23 38 -38q24 -26 24 -35q0 -8 -20 -30 q-17 -18 -29.5 -36.5t-26.5 -37.5q-21 -30 -28.5 -20.5t-35.5 37.5q-40 38 -78 78t-77 79q-31 30 -61 61t-60 64q-45 45 -89 91.5t-89 92.5q-30 30 -60.5 58.5t-58.5 58.5q-20 20 -31.5 29.5t-29.5 30.5q-18 18 -18 1v-15q0 -33 -3 -86q-2 -35 -3 -69.5t-2 -68.5 q-2 -33 -2 -58.5v-55.5q0 -15 1.5 -32.5t2.5 -32.5q0 -33 2 -65t3 -64q1 -45 4.5 -84.5t6.5 -85.5q2 -38 -1 -50t-41 -18q-21 -4 -40 -4q-11 -1 -21 1q-28 4 -61 4q-15 0 -14 15zM196 1238v-73q0 -37 1.5 -73.5t2.5 -72.5q1 -29 10 -29q3 0 9 -1q13 0 39 1q24 0 63 7 q36 7 58 11.5t55 18.5l40 16t36 23q69 64 93 128q12 34 17 61q4 29 4 66v25q-2 45 -20 84q-11 25 -45 53q-41 31 -84 44q-27 7 -49.5 13t-50.5 11q-45 7 -68 8.5t-57 3.5h-7q-35 0 -35 -9q0 -10 -4 -50q-4 -33 -5 -103q-2 -62 -3 -88q-1 -27 0 -51v-24z" />
<glyph unicode="S" horiz-adv-x="509" d="M1 984q2 20 6 49q4 37 19 78q21 57 39 86q37 65 79 108q26 28 68 55l25.5 17t27.5 17q20 11 52 26q27 12 55.5 25.5t63.5 18.5q6 1 11 1q29 0 26 -26q-2 -16 0 -50t5 -47q5 -30 5 -43q0 -7 -1 -9q-3 -8 -50 -13q-31 -4 -65 -16q-39 -14 -63 -32q-32 -26 -46 -43 q-37 -42 -46 -83q-6 -30 -6.5 -57t0.5 -57q4 -65 34 -118q12 -22 33 -43t33 -34q16 -18 27.5 -31t27.5 -36q29 -42 41 -74t22 -83q15 -74 15 -147q-2 -44 -14 -98q-14 -65 -60 -123q-15 -17 -29.5 -29t-29.5 -27q-26 -25 -65 -49q-27 -19 -46.5 -31t-49.5 -23 q-39 -15 -45 -17l-1 -1q-6 0 -23 28q-12 19 -27 49q-7 10 -15 22.5t-14 23.5q-15 25 -11.5 28.5t18.5 11.5l16 8t17 9q48 26 74 46q9 6 27 20.5t28 24.5q39 40 60 101q7 25 12 41.5t2 63.5q-4 57 -36 108q-30 46 -70.5 79t-70.5 75l-35 49t-29 55q-16 44 -20 72q-2 15 -2 28 q0 8 1 16z" />
<glyph unicode="T" horiz-adv-x="625" d="M4 958q-1 5 -1 9q0 22 17 27q19 5 38 2.5t40 1.5q24 4 22.5 10.5t1.5 29.5q5 31 2.5 62.5t-4.5 63.5q-3 36 -4.5 71t-2.5 71q-3 64 -7 129t-7 130q-2 19 -1.5 39t0.5 39q-1 33 0 36.5t47 15.5q33 8 64.5 12t56.5 16q5 2 8 2q15 0 18 -29q0 -17 1.5 -35t1.5 -34 q0 -57 0.5 -113t0.5 -112q0 -34 -4 -84q-4 -41 -4 -70v-13q0 -30 -1 -57.5t1 -58.5q0 -19 0.5 -38.5t3.5 -37.5q3 -39 6 -41t43 2q90 7 99.5 7.5t102.5 3.5q36 0 43 -2t10 -35q0 -16 -3.5 -34t-4.5 -42q-2 -37 -14 -55t-55 -16q-33 0 -66 -1.5t-83 -4.5q-74 -5 -74.5 -18.5 t-0.5 -85.5q0 -18 -2 -35.5t-3 -34.5q-3 -42 -5 -81q-1 -26 -1 -51v-24q0 -65 19.5 -237t26.5 -204q6 -34 -39 -36q-35 -2 -58.5 1.5t-56.5 -3.5q-9 -2 -15 -2q-16 0 -16 12q0 17 -4 45q-10 53 -11 122q0 35 0.5 63t0.5 69q-2 72 -6 144q-4 55 -6 112.5t-4 113.5 q-1 19 -3 37.5t-2 38.5q-2 28 -6 29.5t-31 -1.5q-16 -2 -28 -2q-29 0 -29 15l1 17q0 23 -3 63q-6 44 -10 66z" />
<glyph unicode="U" horiz-adv-x="905" d="M1 615q3 78 5 107.5t4 50.5q2 31 4 62.5t5 63.5q1 18 3 35.5t3 35.5q3 39 10 41q17 4 42.5 4.5t50.5 1.5q33 0 40 -1q42 -9 42 -38v-5q-2 -9 -6 -18q-11 -28 -14 -55.5t-6 -56.5q-4 -44 -8 -87.5t-7 -86.5q-3 -29 -7.5 -57.5t-4.5 -56.5q-1 -21 1.5 -52.5t10.5 -48.5 q21 -56 52 -87q18 -20 30.5 -31t34.5 -29q24 -21 55.5 -34.5t61.5 -22.5q45 -15 82 -15q11 0 22 1q59 5 92 15q15 4 24.5 8.5t22.5 4.5q23 1 24 25q0 21 2 51.5t3 57.5q0 27 -0.5 54.5t0.5 54.5q0 18 0.5 36.5t-0.5 37.5v24q0 24 1 47q1 19 1 38.5t1 39.5q0 15 0.5 30 t1.5 30q0 15 0.5 30t0.5 30q-1 17 -2.5 34t-1.5 35q-2 24 -3.5 47.5t0.5 47.5q2 26 6 30q3 2 16 2q8 0 20 -1q34 -3 57.5 -9t58.5 -3q29 3 29 -13l-1 -46q-3 -32 -2.5 -41t-0.5 -32q-2 -45 -4 -69q-3 -32 -5 -64t-2 -63q0 -30 -1 -62t0 -62q2 -36 2 -73q0 -24 -1 -50 q-2 -64 -2 -123q-1 -39 -1.5 -78.5t-3.5 -77.5q-3 -27 -2 -53t1 -52q-2 -30 -1 -44q3 -31 4 -40.5t-27 -8.5q-34 2 -61 -3q-32 -5 -35 -6q-23 -3 -32 -3q0 1 -2 1q-8 0 -7 27q0 12 3.5 20.5t3.5 26.5q0 31 -10.5 27.5t-56.5 -9.5q-33 -4 -61.5 -7.5t-62.5 -1.5 q-56 4 -136 29q-61 19 -117 48q-60 28 -103 65q-78 66 -101 121q-19 44 -25 78t-9 87q-1 39 -1 85v49z" />
<glyph unicode="V" horiz-adv-x="1015" d="M8 933q-6 6 -6 11q0 6 8 9q10 3 20 7.5t22 8.5q17 7 38 12q12 4 38 12q4 2 8 3.5t9 4.5q29 10 45 -15q14 -25 11 -20q11 -21 19 -37.5t20 -36.5q6 -11 12.5 -26t12.5 -26q12 -21 17 -33t16 -30q6 -9 13.5 -21.5t13.5 -21.5q10 -15 20 -30.5t21 -30.5q29 -44 47 -76 q16 -30 33 -53q12 -18 23.5 -36t22.5 -36q9 -18 13.5 -26.5t17.5 10.5q9 12 13 26.5t11 27.5q14 27 28.5 53.5t26.5 53.5q12 25 21.5 48t23.5 48q11 19 20.5 39t19.5 41q11 24 23 47.5t23 48.5q12 32 46 93q12 25 26 25h1q14 -2 41 -9q21 -6 44 -8.5t44 -11.5q17 -8 17 -21 q0 -12 -15 -29q-23 -27 -42.5 -60.5t-36.5 -63.5q-12 -21 -21.5 -39.5t-20.5 -38.5q-15 -27 -29 -54.5t-26 -54.5q-9 -19 -15.5 -38t-15.5 -37q-22 -46 -48 -116q-16 -40 -32 -100q-4 -18 -9.5 -33.5t-8.5 -33.5q-6 -19 -7 -53q-2 -23 -2 -26t-24 -8q4 1 -26 1 q-14 -1 -28 -1.5t-28 -0.5q-33 -3 -45 -6h-2q-12 0 -26 24q-9 13 -15 27.5t-14 28.5q-7 12 -13.5 23.5t-12.5 23.5q-21 38 -38 76q-9 21 -21 40t-23 41q-12 22 -22 45t-21 46q-23 47 -60 100q-9 12 -16.5 26.5t-15.5 29.5q-17 29 -32 55q-9 12 -17 26t-17 26q-31 39 -54 73 q-8 10 -14 21t-14 20q-4 3 -8.5 7.5t-7.5 8.5z" />
<glyph unicode="W" horiz-adv-x="1619" d="M2 1090v5q0 25 17 29q13 2 26.5 1.5t26.5 0.5q35 2 53 5q4 0 37.5 6t38.5 9t8 3q6 0 0 -14q-10 -29 -9 -26q-5 -27 -4.5 -34t2.5 -27q6 -83 16.5 -165.5t14.5 -163.5q2 -41 6 -61.5t8 -56.5q3 -32 7.5 -58.5t8.5 -66.5q2 -33 2 -60q0 -20 -1 -36q0 -2 7.5 -24t34.5 17 q25 35 41 75.5t35 79.5q33 70 54.5 116.5t61.5 115.5q8 15 18.5 30.5t20.5 31.5q12 18 23.5 36.5t14.5 40.5q1 27 -26 69q-9 15 -11 23t23 19q22 9 35 14.5t34 17.5q18 10 33.5 19.5t38.5 1.5q14 -6 10.5 -16.5t20.5 -13.5q25 -4 39.5 -29t41.5 -37q26 -13 26.5 -16 t-12.5 -27q-11 -18 -25.5 -33t-8.5 -38q2 -16 27 -64q9 -18 17.5 -37t19.5 -35q15 -23 28.5 -44.5t30.5 -42.5q15 -20 43 -58q23 -31 43.5 -63.5t43.5 -62.5q35 -47 49 -69q10 -18 15.5 -26t17.5 11q7 12 12.5 26.5t11.5 28.5q12 27 23 51t23 52q10 25 23.5 56.5t26.5 65.5 q15 39 33.5 85t45.5 113q6 15 14.5 30.5t14.5 30.5q12 27 26.5 26.5t41.5 -6.5q21 -6 44 -7.5t44 -9.5q18 -7 18 -21q0 -12 -13 -28q-21 -28 -39 -63t-33 -65q-12 -21 -20.5 -40t-18.5 -40q-21 -43 -39.5 -92t-36.5 -96q-24 -62 -42 -118q-17 -49 -27 -101q-4 -18 -8 -34 t-7 -34q-4 -19 -4 -53q-1 -24 -1 -28t-24 -8q-20 -5 -40.5 -4.5t-40.5 -1.5q-32 -4 -44.5 -7.5t-30.5 22.5q-9 13 -15.5 27t-15.5 28q-38 52 -70 118q-11 21 -23.5 40t-24.5 40q-13 22 -24 44t-23 45q-27 49 -61 98q-18 24 -44 63q-8 11 -17 21.5t-18 22.5q-15 18 -28 35.5 t-17 22.5q-19 22 -23 12t-11 -32q-9 -26 -42 -79q-34 -55 -53.5 -86t-61.5 -101q-25 -42 -51 -83.5t-51 -82.5q-45 -72 -61.5 -84.5t-10.5 -33.5q3 -15 5 -29t8 -27q10 -27 1 -28t-39 -2q-59 -5 -104 -5q-15 0 -29 1q-38 0 -41 29q-2 21 -5 42.5t-3 42.5q0 90 -8.5 179.5 t-17.5 179.5q-14 115 -30 235q-7 43 -13 90t-11 91q-5 41 -12 81.5t-11 82.5z" />
<glyph unicode="X" horiz-adv-x="1458" d="M8 1134q-5 5 -5 10t6 11q24 20 43.5 41.5t48.5 38.5q24 14 36 14q4 0 7 -2q10 -7 33 -37q45 -60 90.5 -119.5t91.5 -118.5q27 -36 53.5 -72t60.5 -66q15 -14 27 -29t29 -31q25 -27 49.5 -55t51.5 -52q10 -9 21 4q18 17 49.5 45.5t61.5 57.5q105 102 177.5 165t162.5 153 q30 30 59 62.5t62 65.5q25 25 32 25t33 -23q9 -9 18.5 -16.5t18.5 -15.5q8 -8 17.5 -13.5t18.5 -11.5q21 -16 21 -24q0 -3 -2 -5q-10 -7 -37 -34q-39 -39 -79.5 -76.5t-79.5 -76.5q-78 -75 -135 -127t-135 -125q-21 -19 -58 -55.5t-56 -56.5q-14 -15 -20.5 -21t-15.5 -15 q-18 -18 3 -39q0 -2 12 -17t14 -16q14 -18 37 -48t33 -44q33 -51 72 -88q84 -80 139 -136q30 -33 59.5 -60t62.5 -60q26 -27 32 -37t-17 -40q-21 -26 -45 -42.5t-47 -39.5q-5 -4 -10 -4q-6 0 -11 7q-12 18 -19 24t-17 21q-20 29 -37.5 51.5t-39.5 52.5q-62 82 -131 158 l-138 152q-19 20 -37 46q-34 40 -37 42q-4 1 -52 -47q-18 -18 -58 -57.5t-73 -69.5q-50 -44 -126 -131q-57 -67 -98 -118q-25 -30 -40.5 -54.5t-22.5 -33.5q-26 -30 -53 3q-8 10 -15.5 20l-13.5 18q-20 22 -53 44q-26 17 -13 28t29 35q17 25 38.5 46.5t42.5 44.5 q24 26 46 43.5t50 47.5q24 27 50 52t50 52q38 41 78 80l80 78q2 2 24 22q18 17 8 32.5t-16 27.5q-31 48 -45.5 62t-53.5 56q-53 53 -101.5 110t-98.5 114q-67 73 -156 156q-14 12 -19.5 19.5t-21.5 21.5z" />
<glyph unicode="Y" horiz-adv-x="842" d="M2 -326v5q0 10 5 44t14 64.5t8 57.5q0 26 35 13q15 -6 30 -13.5t31 -14.5q25 -9 50.5 -19.5t52.5 -19.5q36 -12 64 -16q58 -7 84 -7h6q47 5 69 13q45 18 66 39q48 51 63 97t19 115q1 29 3.5 56t3.5 59q3 100 3 109q0 1 -0.5 1t5.5 109q1 27 1 53v27v19q0 29 2 57 q1 10 1 24q0 67 -13 212q-15 173 -21 206q-5 34 40 34q35 0 58.5 -3.5t57.5 2.5q30 5 29 -12.5t4 -44.5q5 -30 6 -60.5t1 -60.5q-1 -36 -3 -64.5t-2 -68.5v-72t1 -72q1 -32 1 -64q0 -24 -1 -48l-2 -112q0 -33 -1 -63.5t-1 -63.5q0 -24 -1 -46.5t-1 -44.5q0 -36 1 -72v-19 q0 -27 -2 -53q-6 -88 -20 -139q-12 -43 -30 -70t-42 -58q-41 -49 -109 -73q-36 -12 -63 -19t-75 -10q-31 -1 -59 -1q-74 0 -127 9q-73 13 -137 34q-18 6 -36 15t-35 16q-31 12 -34 14zM142 288q-1 5 -1 11q0 16 4 39q5 33 5 73q0 17 -1 36q-2 35 -3 70.5t-2 71.5 q-1 14 -1 28q0 25 3 49q3 37 5 76l2 66l2 66q0 61 1 91q0 18 7 19q34 6 47 8q25 5 47 5q38 0 48 1t10 -38q-1 -29 -6 -53t-9 -52q-5 -33 -9 -100q-1 -11 -2.5 -23t-1.5 -22q-2 -32 -3.5 -60.5t-0.5 -59.5q1 -29 1 -87q0 -13 1 -26.5t2 -26.5q0 -15 0.5 -28.5t1.5 -27.5 t2.5 -27.5t3.5 -26.5q0 -9 0.5 -16.5t1.5 -14.5q1 -31 6 -43q7 -21 5 -16q6 -19 -4 -22q-16 -8 -23 -8q-3 0 -3 3q-1 7 -19 14q-30 10 -61 10q-8 0 -16 -1q-38 -4 -39 -2t-1 44zM160 1349q8 31 33 56q15 15 36 25q8 4 45 17q18 4 34 4q21 0 39 -7q20 -9 35 -36.5t21 -47.5 q8 -25 4 -48q-6 -32 -16.5 -46.5t-28.5 -32.5q-33 -34 -78 -34q-17 0 -36 5q-34 8 -53 32q-19 20 -27 41q-12 23 -12 46q0 13 4 26zM554 1250q-5 17 -5 33q0 21 8 40q10 27 40 50q13 10 39 20q15 6 47 10q10 1 19 1q28 0 53 -13q18 -12 29.5 -41.5t14.5 -49.5q1 -12 1 -21 q0 -17 -3 -28q-10 -30 -23 -43.5t-33 -28.5q-32 -23 -67 -23q-24 0 -49 10q-35 14 -50 39q-18 30 -21 45z" />
<glyph unicode="Z" horiz-adv-x="1474" d="M1 887q0 18 28 24q30 6 47 8q33 3 57.5 5t59.5 7q38 4 92 11t90 12q35 3 53 6.5t46 6.5t61 7.5t74 10.5q33 4 65.5 10.5t65.5 12.5q116 18 224 41q21 4 42 7t42 7h5q24 0 33 -32q9 -35 16 -66t14 -64q6 -30 7.5 -40t-26.5 -4q-23 3 -41 4t-40 5q-22 3 -27 -11.5 t-21 -33.5q-63 -80 -113 -150q-22 -31 -44 -60.5t-42 -59.5q-21 -30 -44.5 -59.5t-45.5 -56.5q-16 -21 -31 -42.5t-29 -40.5q-21 -29 -41 -64t-42 -63q-14 -18 -24 -37.5t-25 -34.5q-18 -17 -25.5 -25t22.5 -14q5 -2 32 -4.5t38 -2.5q59 -1 118.5 -5.5t119.5 -5.5 q47 0 95 -1.5t95 -2.5q54 -2 105 -7q36 -4 74 -4q15 0 31 1q40 1 80 3t81 5q7 0 14.5 0.5t15.5 1.5q13 0 18 -23q3 -15 3 -60v-16q0 -58 -4 -70q-6 -22 -14.5 -21t-20.5 4q-41 8 -107 13q-12 2 -75 4t-81 2q-52 1 -103.5 3.5t-102.5 4.5q-58 3 -115 5q-41 2 -81 2h-32h-47 q-45 0 -84 1q-33 3 -73 9q-15 2 -29 2q-23 0 -43 -6q-23 -7 -30.5 -26t-18.5 -37q-15 -21 -19 -22q-4 0 -25 17q-23 18 -52 20t-43 23q-14 20 -22 12.5t-19 2.5q-20 19 -17 35t5 38q0 29 -2 76q-1 27 7 28.5t26 0.5q17 -2 30 -2q29 0 43 9q18 12 30.5 30t25.5 36 q16 22 40 63q19 30 48 68q13 18 30.5 40.5t29.5 39.5q18 28 37 55.5t42 54.5q39 45 67.5 84.5t64.5 84.5q15 18 33 41t34 40q31 34 59 74q14 20 -15 11q-15 -5 -28.5 -10t-24.5 -7q-41 -8 -76.5 -12.5t-76.5 -10.5q-35 -5 -61 -8.5t-71 -10.5q-82 -14 -146 -24.5t-145 -22.5 q-20 -3 -39.5 -6.5t-43.5 -12.5q-5 -2 -31 -18q-13 -8 -13 5q0 14 -2 43.5t-2 33.5q-3 13 -5 26t-4 27q-3 12 -7 24.5t-4 27.5z" />
<glyph unicode="\" horiz-adv-x="846" d="M4 1328q-4 10 6 14q2 0 4 1.5t5 2.5l10 5q35 16 43 19q9 3 43 16q11 4 22 9.5t23 7.5l4 -10q1 -4 3 -7.5t4 -6.5q5 -11 6 -14q31 -79 56 -124q20 -37 40.5 -73.5t38.5 -73.5q19 -42 39.5 -81.5t39.5 -80.5q21 -47 43.5 -92t49.5 -87q21 -36 39.5 -73t39.5 -72 q18 -33 36.5 -65t39.5 -65q14 -24 27 -48.5t27 -48.5q41 -75 83 -133q1 -2 9 -17q16 -33 18.5 -37t-32.5 -26q-11 -7 -21.5 -14.5t-20.5 -13.5q-9 -6 -16.5 -14t-15.5 -14q-29 -23 -33.5 -12t-23.5 45q-28 48 -53.5 96.5t-52.5 97.5q-21 38 -40.5 76.5t-40.5 77.5 q-28 46 -56 97q-19 33 -38.5 65t-35.5 65q-22 42 -43.5 85.5t-45.5 85.5q-21 33 -37 69.5t-34 72.5q-20 36 -42 71.5t-41 72.5q-14 27 -29 52t-27 52q-6 12 -10.5 23.5t-9.5 23.5z" />
<glyph unicode="_" horiz-adv-x="1485" d="M1 -316q1 3 1 10q1 4 1 11q1 30 4 47q2 15 8 45q5 43 7 47q0 2 11 -1q3 0 7 -0.5t8 -0.5q11 0 16 -1q77 -12 135 -12q42 0 83.5 -0.5t83.5 -3.5q45 -3 90 -5t90 -6q51 -3 101 -6t101 -1q40 2 81.5 -0.5t82.5 -2.5q38 1 75 1.5t76 1.5q36 1 111 -1q87 0 156 7h20 q36 -2 40.5 -2t7.5 -42q0 -12 1.5 -24.5t2.5 -24.5q0 -11 3 -21t5 -22q5 -35 -6.5 -34t-50.5 1q-55 0 -110.5 1.5t-109.5 1.5q-45 1 -87.5 3t-86.5 2q-29 0 -57 -0.5t-56 -0.5q-38 0 -75.5 -0.5t-73.5 0.5q-48 2 -96.5 5t-96.5 1q-39 0 -79 3.5t-79 4.5q-42 1 -83.5 -0.5 t-82.5 -0.5q-30 2 -59.5 1t-59.5 2q-15 1 -50 5q-11 2 -10 12z" />
<glyph unicode="a" horiz-adv-x="816" d="M0 685q1 60 33 137q39 100 103 154q79 66 191 91q42 9 81 9h4h17q34 0 71 1q28 1 27.5 6.5t-1.5 34.5q-1 12 -2.5 25.5t-0.5 26.5q2 30 11 32.5t38 2.5q30 0 59 2q10 1 19 1q20 0 40 -3q24 -3 24 -10.5t1 -31.5q1 -171 16 -365q6 -70 6 -143.5t11 -142.5 q6 -49 11.5 -92.5t13.5 -91.5q3 -23 3 -33q0 -7 -2 -5q-4 4 -50 0q-27 -2 -50 -10t-49 -13q-5 -1 -10 -1q-19 0 -19 21q-2 17 -2 34.5t-3 35.5q-7 31 -20 29q-24 -6 -48 -11.5t-48 -8.5q-60 -11 -113 -11q-40 0 -75 6q-67 10 -128 39q-70 33 -113 103q-19 29 -31 80 q-15 51 -15 102zM154 711v-18q0 -29 4 -59q6 -40 36 -64q26 -24 89 -34q30 -5 69 -4q25 0 53 1q33 3 65.5 6t65.5 12q27 6 29 12.5t3 36.5q0 30 -2.5 61t-2.5 61q-1 33 -5 61.5t-6 60.5q-3 42 -9 50q-7 7 -44 16q-30 6 -60 11q-21 4 -43 4l-17 -1q-83 -8 -128 -37 q-21 -14 -32.5 -31t-25.5 -35q-36 -49 -39 -110z" />
<glyph unicode="b" horiz-adv-x="1042" d="M1 1166q-1 22 17 27q14 3 29 7t42 7q25 2 17 35q-8 32 -10 56q-2 12 -3.5 24t-2.5 24q-3 27 -8 55t-8 56q-5 43 -7 87t-5 88t-6 87.5t-5 87.5q-1 11 -1.5 21.5t-1.5 22.5q-5 38 -15 68q-5 16 -5 22q0 31 43 38q6 0 16.5 0.5t24.5 -0.5q24 -2 49.5 -3t42.5 -5q9 -4 9 -41 q2 -48 5 -72q1 -28 3 -88q1 -13 1 -38q2 -58 5 -88q4 -49 8.5 -96t8.5 -96q0 -10 2.5 -49t3.5 -57q3 -51 9 -85q3 -26 25 -20q20 3 74 8q24 4 39 4q23 1 44 1q55 0 95 -6q56 -7 99 -16q24 -6 53 -17.5t48 -19.5q62 -26 100 -66q24 -27 43 -48.5t37 -52.5q11 -21 27.5 -58 t21.5 -61q7 -40 13.5 -72t10.5 -74q2 -22 2 -46q0 -30 -3 -63q-4 -33 -8.5 -61.5t-14.5 -58.5q-13 -36 -27 -55t-37 -46q-12 -13 -45 -44q-14 -12 -43 -33t-45 -31q-19 -12 -49 -28.5t-52 -25.5q-70 -27 -150 -48q-33 -9 -51 -14t-51 -11q-47 -10 -56.5 -17t-6.5 -38 q2 -18 5.5 -26.5t5.5 -21.5q3 -27 -4 -29q-3 -1 -10 0q-9 0 -24 1q-12 0 -36 2q-28 2 -60 -2t-33 31t-2 62q-2 26 -3.5 51.5t-4.5 51.5q-6 38 -10.5 77t-8.5 78q-5 43 -9 86t-7 87q-3 33 -6 67t-6 67q-10 98 -25 188q-4 21 -5.5 44t-6.5 44q-7 31 -28 27q-10 -3 -12 -6 t-11 -6q-26 -8 -33 42q-2 10 -4.5 21t-3.5 22q-3 11 -6 26t-3 39zM281 1052v-7q0 -9 1 -30q3 -83 9 -129q3 -34 8 -68t7 -67q1 -20 2.5 -54t7.5 -61q4 -29 5.5 -50.5t5.5 -49.5q7 -51 10 -75q2 -27 4.5 -39t3.5 -34q0 -20 17 -20q4 0 8 1q24 5 49 12t49 13q67 17 137 45 q57 22 116 75q23 20 53 58q38 45 46 88q5 28 5 57v10q-2 59 -16 118q-9 31 -13 40q-15 35 -39 67q-46 56 -103 80q-44 18 -72 25q-21 5 -37.5 9.5t-35.5 7.5q-17 3 -34.5 4t-30.5 3q-11 1 -22 1q-46 0 -106 -16q-34 -10 -35 -14z" />
<glyph unicode="c" horiz-adv-x="683" d="M0 687q0 45 10 91q8 36 27 82q24 60 40 88q13 23 26.5 47.5t30.5 46.5q30 40 90 85q90 65 195 105q41 15 99 32q28 8 31 8q4 0 12 -27q9 -29 19 -87q5 -33 10 -47t-30 -17q-49 -5 -129 -25q-49 -13 -97 -46q-20 -11 -68 -65q-28 -32 -48 -71q-14 -27 -25 -47t-17 -48 q-8 -33 -8 -66q0 -16 2 -33q6 -64 32 -130q27 -65 63 -111q21 -27 58 -48.5t70 -36.5q30 -15 90 -31q29 -8 57 -15t58 -12q52 -10 52 -22q0 -13 -5 -59q-2 -12 -3 -23.5t-2 -23.5q-6 -36 -6 -42q0 -3 -10 -3t-28 3q-24 1 -38 4l-48 6t-47 9q-33 7 -62.5 14.5t-58.5 22.5 q-46 21 -77 42q-44 28 -83 70q-43 44 -55 62q-16 23 -32.5 45.5t-30.5 47.5q-28 47 -38 83q-24 81 -26 142z" />
<glyph unicode="d" horiz-adv-x="793" d="M1 632q3 60 26 132q31 102 88 170q48 59 123 105q37 22 103 49q18 7 55.5 18.5t58.5 14.5q26 3 51.5 6.5t53.5 3.5q33 0 29 23t-2 57q2 27 1 55t0 56v42.5v40.5q0 71 -9 178q-7 75 -14 149t-14 149q-4 37 -1.5 49.5t40.5 21.5q23 4 44 4h17q29 -2 61 0q17 0 14 -16 q-2 -21 -1 -30.5t0 -27.5q-9 -92 -9 -186v-34q0 -50 3 -99.5t3 -98.5q-1 -30 -1 -51.5v-51.5q-1 -13 -1 -27q0 -26 3 -52q4 -40 5 -79q3 -130 9 -260t6 -254v-38q0 -57 2 -117q2 -48 2 -96q0 -31 -1 -62t0 -62t2 -61q1 -32 5 -91q1 -7 1 -13q0 -23 -10 -23q-12 0 -39 6 q-14 2 -31 2q-25 0 -56 -5q-15 -3 -27 -6q-7 -2 -15 -2q-5 0 -10 1q-33 3 -5 38q14 18 15 33q0 11 -8 11h-8q-50 0 -122 11q-76 12 -124 30q-54 19 -109 44t-98 66q-69 63 -90 142q-16 65 -16 118v17zM156 586q1 -54 23 -87q26 -41 45 -55t61 -28q41 -14 104 -24 q47 -8 69 -8h5h18q22 0 58 -1h7q34 0 34 10q0 11 2 51q1 24 1 49v54v115t-4 121q-3 39 -6 73.5t-6 72.5q-3 29 -11 29h-5q-12 0 -42 -2q-40 -3 -63 -9q-37 -9 -59.5 -14.5t-53.5 -20.5q-135 -64 -161 -173q-16 -63 -16 -131v-22z" />
<glyph unicode="e" horiz-adv-x="1043" d="M5 1039q-1 6 -1 11q0 18 14 23q18 5 36 4t37 3q20 2 22 37v9q0 39 -7 110q-8 66 -12 133q-3 33 -4 66t-3 66q-1 29 -2.5 41.5t-31.5 12.5q-45 -2 -45 28q-1 30 -1.5 52t-1.5 52q-1 12 -1 20q0 15 4 15q6 0 44 2q37 0 74.5 0.5t75.5 1.5q80 1 186 8q43 3 86.5 4.5 t87.5 3.5h87h87q36 -1 40 -2.5t4 -36.5q0 -27 -4 -52t0 -46q3 -32 -31 -36q-10 -1 -58 -1q-24 -1 -48.5 0t-48.5 1q-20 1 -61 1h-42h-42q-28 -1 -56 0t-56 0q-21 -2 -46 -2t-25 -14q-3 -24 -3 -47q1 -9 1 -18q2 -32 1 -65q0 -29 -1 -58.5t1 -57.5q0 -28 0.5 -53.5t3.5 -54.5 l2 -36t4 -36q5 -36 8 -38t40 3q40 6 81 6q2 -1 6 -1h30q30 0 60 1q43 0 82 0.5t80 2.5q35 0 70.5 2t71.5 5q35 2 70.5 4.5t71.5 5.5q34 2 41 2.5t10 -29.5v-8q0 -12 -2 -24q-3 -17 -3 -39q0 -69 -61 -69q-59 0 -99 -1q-33 -1 -64.5 -2.5t-62.5 -2.5q-48 -3 -95.5 -4.5 t-93.5 -3.5q-40 -3 -80.5 -5.5t-79.5 -5.5q-69 -6 -69 -19t3 -76q0 -21 -2.5 -39t-2.5 -34v-31q1 -23 1 -44q2 -36 1 -70q0 -32 5.5 -63.5t10.5 -57.5q2 -13 2.5 -22t3.5 -21q7 -32 9 -42t35 -5q34 4 70 10t75 11q36 3 72 7.5t72 9.5q41 4 46 -3t2 -43q-1 -12 -1 -23 q0 -39 14 -62q15 -28 -15.5 -27.5t-48.5 -0.5q-30 -3 -58.5 -5.5t-57.5 -10.5q-61 -16 -115 -26q-27 -5 -48.5 -5t-12.5 -33q7 -31 -35 -35q-33 -3 -55.5 -0.5t-53.5 -5.5q-9 -3 -15 -3q-14 0 -14 12q0 16 -6 42q-7 27 -9 55.5t-5 57.5q-2 33 -2 61v11q0 24 -2 54 q-6 85 -11 133q-6 52 -10 105.5t-7 105.5q-2 18 -4.5 36t-3.5 36q-2 26 -5.5 27.5t-29.5 -3.5q-55 -9 -54 13v7q0 23 -5 66q-3 17 -11 62z" />
<glyph unicode="f" horiz-adv-x="891" d="M5 1059q-1 6 -1 12q0 19 15 25q19 5 38.5 3.5t39.5 3.5q24 5 22 11.5t1 28.5q2 18 0.5 38.5t-1.5 41.5q0 11 -3 23t-3 24q-5 35 -9 70t-4 71q0 88 11 140q9 44 24.5 72t37.5 60q36 52 104 81q34 15 61 24.5t76 14.5q69 7 128 7q30 0 57 -2q60 -5 139 -24q18 -6 36.5 -13 t36.5 -13q32 -11 35 -12q1 -1 1 -10q0 -12 -2 -39q-4 -34 -11 -65.5t-4 -58.5q3 -26 -33 -15q-16 4 -31.5 11t-31.5 12q-27 8 -53 16.5t-53 15.5q-32 9 -64 12q-30 2 -53 2t-37 -2q-46 -6 -68 -17q-44 -21 -63 -44q-41 -45 -54 -83q-12 -32 -13 -67v-17q0 -26 2 -51 q1 -30 1 -57.5t3 -58.5q1 -19 2.5 -38t4.5 -38q6 -39 9 -40.5t42 3.5q73 9 93 9h7q2 -1 10 -1q23 0 91 5q36 2 43.5 3t10.5 -32q1 -15 -1.5 -33.5t-2.5 -42.5q-1 -37 -12 -55t-54 -18q-76 -1 -76 -3q0 -3 -74 -9q-73 -7 -73 -21t3 -86q0 -18 -2.5 -37.5t-2.5 -37.5 q-1 -21 -1 -40.5t1 -37.5q2 -37 2 -73v-9q0 -65 26 -226q28 -172 37 -204q7 -34 -37 -37q-36 -3 -59.5 -1t-56.5 -6q-9 -3 -16 -3q-14 0 -14 13q-1 17 -7 44q-12 43 -13 119q-1 35 -2.5 64.5t-4.5 69.5q-3 36 -5.5 72t-5.5 72q-6 55 -10 112t-8 113q-2 19 -5 38t-4 38 q-3 28 -6.5 29.5t-30.5 -3.5q-19 -3 -31 -3q-27 0 -27 15v8q0 25 -5 71q-5 34 -12 66z" />
<glyph unicode="g" horiz-adv-x="1075" d="M0 696q0 46 6 91q8 90 41 151q32 63 75 107q30 30 72 57.5t76 44.5q71 33 128 48q128 32 262 40q51 2 78 2h16q25 -1 30 -51q5 -45 5 -79q0 -61 -28 -61q-3 0 -7 1q-37 8 -80 8q-30 0 -64 -4q-81 -10 -144 -26q-60 -16 -114 -49q-49 -31 -106 -93q-38 -41 -57 -91 q-6 -17 -8 -34l-4 -34q-1 -13 -1 -31q0 -24 2 -58q6 -60 16 -89q14 -49 33 -76q14 -22 42 -52q14 -16 32 -28t33 -21q24 -16 75 -33q54 -18 134 -33q35 -7 68 -7q17 0 33 2q18 3 29.5 4t21.5 4q37 6 38 10.5t3 40.5q0 18 1 37l2 38v31.5v32.5q-3 70 -5 84t-75 14 q-76 0 -76 2h-2q-13 0 -72 -4q-44 -3 -56.5 14t-15.5 54q-3 24 -6 34t-3 26q0 33 7 32.5t44 0.5q83 1 121 3q27 2 57 2h24q24 -1 48 -1q36 0 73 2l122 6q20 0 39 1.5t39 -1.5q18 -5 18 -26q0 -4 -1 -10q-2 -13 -4.5 -25.5t-2.5 -24.5q-2 -27 -2 -47l2 -34q0 -17 -35 -17 q-9 0 -21 1q-28 3 -32.5 0t-1.5 -38q4 -62 9 -104.5t8 -72.5q3 -46 4 -75t4 -63q0 -19 2 -34t2 -38q-2 -27 -22 -27q-44 -3 -79 -7q-19 -3 -69 -6.5t-68 -3.5h-49h-51q-76 1 -170 18q-14 2 -48 9.5t-56 15.5q-16 6 -51 20.5t-59 28.5q-23 12 -53 34.5t-48 46.5 q-51 64 -74 118q-11 23 -24 61t-19 71q-8 43 -9 78t-2 82z" />
<glyph unicode="h" horiz-adv-x="963" d="M1 668q0 11 32 15q22 2 27 6q18 13 18 56v9q-1 11 -1.5 23t-0.5 24q-1 12 -2 23.5t-1 23.5q-3 47 -5 93.5t-6 94.5q-3 30 -5 59.5t-8 56.5q-2 9 -0.5 24.5t13.5 15.5q15 0 31 -4.5t36 -4.5q18 -1 54 1q49 0 55 -6.5t3 -52.5q-2 -18 -5 -49q-6 -43 -7 -92 q-1 -14 -1.5 -27.5t-0.5 -27.5q-3 -32 -1.5 -63.5t1.5 -60.5q0 -44 13 -78q7 -19 19 -17t36 4q23 2 46 3t47 4q94 9 178 15q11 0 22 1t23 2q11 1 22 1.5t23 2.5q24 2 35 0.5t12 22.5q1 28 4.5 45.5t5.5 49.5q1 17 3 49q0 50 5 124q1 19 2 38.5t3 39.5q0 11 1.5 21.5 t1.5 21.5q0 6 -1 13t0 13q3 29 13 29q1 0 3 -1q14 -6 34 -7l16 -2t17 -1q17 -2 34 -3t35 -3q27 -4 31.5 -6.5t6.5 -32.5q0 -17 -4 -29q-11 -30 -17 -49t-9 -49q-4 -35 -6.5 -61t-3.5 -64q-1 -15 -3.5 -29.5t-3.5 -29.5q-6 -77 -6 -151q0 -41 -4 -83t-7 -85q-3 -47 -6 -86 q-2 -23 -2 -47q0 -16 1 -32q2 -44 3 -70.5t24 -93.5q1 -4 1 -8q0 -17 -31 -17q-9 0 -19 1q-24 3 -44 3q-12 0 -22 -1q-27 -3 -60 -9q-36 -8 -36 -8.5t1 42.5t3.5 87t5.5 89q0 21 1.5 43t2.5 45q0 23 -0.5 48.5t3.5 48.5q6 35 -40.5 34t-70.5 -3q-75 -7 -148 -17t-148 -17 q-54 -6 -52.5 -9t7.5 -38q5 -33 10 -62t8 -62q0 -15 2 -30l4 -30q1 -16 1 -31.5t6 -28.5q11 -35 9 -47.5t-44 -6.5q-27 4 -49 2t-49 -5q-42 -6 -44 18t-2 62v25v26q0 34 -1 51q0 34 -1 50q-2 27 -1 46.5t-26 20.5q-9 0 -14 -1q-29 -3 -29.5 9.5t-3.5 49.5q-4 33 -2 59z" />
<glyph unicode="i" horiz-adv-x="358" d="M2 260q0 1 -1 6q0 10 2 38t7 49q9 47 11 109q0 35 1.5 70.5t2.5 71.5q1 39 7 76.5t11 76.5q3 32 6 65l6 66q2 22 3.5 44.5t4.5 45.5q1 18 8 19q33 4 47 5q32 2 47 2q39 -3 49 -3t7 -39q-3 -28 -9.5 -52t-12.5 -51q-6 -25 -9.5 -50t-6.5 -49q-2 -11 -4 -23t-3 -22 l-7.5 -60t-4.5 -59q-1 -29 -5 -87q-1 -14 -0.5 -27.5t0.5 -26.5q-2 -36 -2 -55q2 -36 2 -55q1 -16 0 -31q0 -27 3 -43q7 -21 5 -16q4 -19 -6 -22q-16 -6 -23 -6q-4 1 -4 3q0 6 -17 15q-35 14 -72 14h-5q-36 -1 -38 1zM93 1362q8 27 36 52q14 13 38 24q18 7 46 13q13 2 25 2 q26 0 48 -10q19 -10 32.5 -38.5t17.5 -48.5q3 -13 2 -27q0 -11 -1 -22q-8 -31 -19.5 -45t-30.5 -30q-34 -30 -72 -30q-21 0 -44 9q-34 11 -51 35q-18 22 -25 43q-8 20 -8 40q0 16 6 33z" />
<glyph unicode="j" horiz-adv-x="785" d="M2 -210q-1 1 -1 11q0 12 2 38q3 34 10.5 65t4.5 58q-4 27 33 16q16 -4 31.5 -11t31.5 -13q26 -8 52.5 -16.5t53.5 -15.5q41 -9 65 -11q31 -3 55 -3q19 0 35 2q47 9 67 18q45 22 63 43q45 54 56.5 100.5t11.5 117.5q-1 29 -1 56.5v58.5q-5 117 -5 109.5t-3 109.5 q-1 41 -4.5 80t-3.5 76q-2 62 -29 233.5t-34 204.5q-9 33 37 37q34 3 58 0.5t58 6.5q29 7 29.5 -10t6.5 -44q11 -44 15 -121q2 -36 2 -64.5t3 -67.5q2 -36 4.5 -72t7.5 -72q5 -56 7.5 -112t5.5 -111q3 -56 7 -128q1 -23 1.5 -45.5t3.5 -45.5q3 -36 6 -72.5t3 -71.5 q0 -36 -1.5 -70.5t-8.5 -68.5q-10 -44 -26 -72t-37 -60q-37 -52 -104 -81q-35 -15 -61.5 -24t-74.5 -15q-46 -5 -93 -7q-16 -1 -31 -1q-31 0 -61 3q-79 8 -139 24q-20 6 -38 13t-36 13q-32 10 -35 12zM440 1473q8 29 36 53q13 12 37 23q14 6 46 13q14 3 28 3q24 0 45 -10 q19 -10 32.5 -38.5t18.5 -48.5q3 -17 3 -30q0 -11 -2 -19q-8 -31 -20 -45t-31 -31q-33 -28 -73 -28q-20 0 -41 7q-38 13 -53 35q-21 31 -24 43q-8 21 -8 41q0 16 6 32z" />
<glyph unicode="k" horiz-adv-x="1158" d="M4 1887q-1 5 -1 9q0 25 38 28q34 3 58 0.5t58 6.5q9 3 15 3q14 0 14 -12q0 -18 8 -45q7 -30 9 -60.5t5 -60.5q3 -36 2 -64v-11q0 -25 3 -57q3 -36 5.5 -72t6.5 -72q5 -56 8 -112t6 -111q1 -22 1 -48q0 -37 -2 -83q-1 -13 -1 -25q0 -54 12 -68q13 -16 54 16q17 15 24 21 t21 19q65 60 115 123q47 58 98 113.5t101 111.5q68 78 136 175q10 15 17 20.5t20 23.5q9 15 21 3q22 -23 45.5 -39.5t44.5 -42.5q23 -31 17 -42t-33 -37q-54 -52 -107.5 -104.5t-106.5 -104.5q-33 -32 -64.5 -62.5t-58.5 -67.5q-13 -17 -26 -31t-28 -32q-18 -21 -36.5 -42.5 t-35.5 -42.5q-15 -18 -22 -28q-7 -12 6 -20q16 -12 22 -18q114 -93 224 -191t226 -188q30 -23 45.5 -35t46.5 -33q15 -12 25.5 -19.5t25.5 -17.5q21 -17 21 -36q0 -14 -11 -28q-10 -13 -28 -41q-6 -9 -10.5 -19t-9.5 -19q-18 -32 -26.5 -23.5t-38.5 32.5q-44 34 -86 69.5 t-85 70.5q-84 68 -165.5 138t-163.5 139q-33 27 -66.5 52t-64.5 52q-22 18 -34.5 26.5t-32.5 26.5q-20 19 -17 -1q6 -70 10 -156q2 -36 4 -82q1 -53 9 -113q6 -50 15.5 -97t16.5 -95q6 -45 13 -84.5t15 -84.5q6 -37 5 -50.5t-39 -21.5q-31 -8 -60.5 -10t-60.5 -2h-3 q-13 0 -13 14q1 32 0 59q-2 30 -3 61q0 16 -0.5 33t0.5 35q0 31 -4 91q-9 126 -30.5 287.5t-28.5 263.5q-6 68 -13 169t-9 176q-2 41 -4 80q-1 26 -1 51v25q0 62 -27.5 233.5t-35.5 204.5z" />
<glyph unicode="l" horiz-adv-x="353" d="M0 1614q0 19 32 19q24 3 46 3h12q14 0 35 -1q40 -1 45 -3.5t5 -38.5q0 -83 7 -136q6 -42 12 -83t9 -83q3 -45 7.5 -89.5t7.5 -89.5q6 -117 22 -201q7 -41 11 -82t10 -81q6 -38 11.5 -74.5t12.5 -73.5q5 -28 8 -55.5t8 -55.5q7 -47 17 -89t15 -84l4 -41q0 -5 -41 -13 q-16 -3 -48 -11q-11 -3 -21 -7t-20 -7q-17 -5 -26 -5t-9 6q0 12 -6 50q-9 54 -15 109t-14 110q-6 43 -10 86t-10 87q-10 64 -21.5 129t-17.5 130q-9 87 -18 174.5t-19 174.5q-5 41 -12.5 82t-11.5 83q-3 30 -8 58.5t-7 58.5q-1 12 -1.5 21.5t-0.5 22.5z" />
<glyph unicode="m" horiz-adv-x="1357" d="M2 300q3 41 13 81t16 82q6 43 13.5 90t16.5 90q3 17 5 34.5t5 35.5q6 41 14 81.5t15 82.5q5 33 7 66t7 66q7 54 14.5 112t10.5 114q0 20 4.5 41.5t7.5 42.5q3 28 39 28h3q61 -2 132 -9q30 -3 39 -4t-2 -27q-6 -14 -9 -28l-6 -28q-7 -21 9 -34t58 -87l48 -84l48 -84 q28 -52 52 -93.5t57 -98.5q10 -19 21 -39t18 -41q6 -24 9.5 -34t23.5 12q4 4 19 27t20 32q75 139 92.5 154t88.5 157q41 82 68 145l6.5 13t6.5 14q6 12 23 15q8 0 11 1q32 2 47 2q15 1 46 -1h19h20q9 0 9 -11q0 -4 0.5 -8t0.5 -7q1 -5 1 -16q0 -84 8 -135q5 -42 10 -83.5 t10 -82.5q8 -85 10.5 -125.5t5 -72t8 -71t20.5 -121.5q5 -28 8.5 -55.5t7.5 -54.5q13 -92 30 -154q0 -5 0.5 -10t1.5 -10l4 -41q0 -4 -40 -12q-38 -9 -49 -11q-11 -3 -21 -7.5t-20 -7.5q-16 -5 -25 -5q-10 0 -10 6q0 12 -6 51q-9 54 -15 109t-13 110q-6 43 -10.5 85.5 t-10.5 86.5q-9 56 -10 65.5t-0.5 9.5t-1 9t-10.5 65q-7 38 -8 76.5t-3 80.5t-2 56.5t-10 -6.5q-29 -55 -60 -112t-36 -69q-13 -32 -29 -59.5t-34 -55.5q-17 -29 -41 -60.5t-30 -64.5q-5 -24 8.5 -39.5t23.5 -33.5q12 -24 11.5 -27t-27.5 -15t-42.5 -36.5t-40.5 -26.5 q-24 -3 -21 -14t-11 -15q-13 -5 -14 -5q-28 3 -33.5 9.5t-24.5 18.5q-20 12 -33 18t-34 17q-24 11 -22.5 19t11.5 23q29 42 28 68q-2 21 -12 40.5t-19 40.5q-9 16 -21.5 30t-19.5 31q-32 72 -54 118t-53 118q-6 14 -17 41.5l-17 42.5q-9 18 -16.5 37t-19.5 37 q-27 38 -34.5 16.5t-7.5 -22.5q1 -22 -1 -55q-1 -42 -10 -83t-14 -82q-6 -36 -10.5 -57t-7.5 -60q-8 -82 -21.5 -164.5t-22.5 -163.5q-3 -21 -3.5 -28t3.5 -33q1 -7 3.5 -13.5t4.5 -12.5q7 -21 -8 -12q-4 3 -38 10.5t-38 8.5q-15 2 -52 7q-13 1 -26.5 1t-26.5 3 q-16 3 -16 28v6z" />
<glyph unicode="n" horiz-adv-x="1420" d="M2 350q1 24 6 48q6 31 10.5 55.5t10.5 59.5q6 38 14.5 91.5t14.5 89.5q5 35 7 53.5t7 45.5q4 28 9 60.5t11 74.5q5 33 7.5 66t7.5 66q15 124 22 226q1 21 4.5 42.5t6.5 42.5q3 28 41 28q52 0 133 -7q30 -3 39.5 -4.5t-2.5 -26.5q-10 -21 -16 -38t-15 -37 q-10 -21 2.5 -29.5t27.5 -29.5q27 -39 55 -76.5t58 -74.5q22 -29 44.5 -58.5t46.5 -56.5q22 -28 44 -59t43 -60q14 -21 30.5 -41.5t31.5 -39.5q22 -28 50 -56.5t50 -57.5q12 -18 27.5 -33t27.5 -35q10 -21 15.5 -30.5t20.5 16.5q3 5 13 30.5t13 35.5q18 57 38.5 112.5 t38.5 112.5q13 45 27.5 91t29.5 91q16 51 34.5 99t33.5 100q15 61 37 157q4 21 7 29q2 11 22 11h4q18 -2 75 -19t66 -22q17 -11 17 -18v-3q-4 -8 -10 -18q-18 -36 -43 -99q-4 -11 -24 -71.5t-25 -77.5q-15 -49 -31.5 -98t-32.5 -97q-19 -55 -37 -109.5t-33 -108.5 q-9 -33 -18 -63.5t-20 -61.5q-12 -31 -28 -68q-16 -35 -16 -66q0 -28 16 -40.5t30 -27.5q17 -21 17 -24.5t-24 -19.5q-24 -17 -34 -44.5t-34 -35.5q-23 -7 -18 -17t-8 -17q-16 -10 -28 -10q-7 0 -11 2q-14 8 -35 16q-23 7 -36.5 10.5t-37.5 9.5q-26 6 -25.5 14t7.5 25 q14 36 14 60q0 7 -1 13q-6 21 -20.5 37.5t-27.5 34.5q-12 15 -49 56q-18 19 -52 64q-15 18 -31.5 41.5t-28.5 38.5q-22 26 -43.5 51.5t-40.5 55.5q-33 50 -62.5 88t-62.5 86q-15 19 -31.5 43t-28.5 44q-25 40 -54 77q-17 18 -15 -11q2 -47 1 -56q-4 -41 -9.5 -77t-10.5 -76 q-6 -35 -9.5 -61t-8.5 -72q-11 -82 -18.5 -146.5t-17.5 -145.5q-3 -21 -5.5 -40.5t0.5 -45.5q1 -11 9 -34q3 -16 -8 -11q-15 4 -43.5 10t-32.5 7q-14 2 -27.5 3t-25.5 3q-13 1 -26 1t-26 3q-17 3 -17 28v6z" />
<glyph unicode="o" horiz-adv-x="905" d="M2 677q-2 19 -2 38t2 39q2 47 20 97q7 23 27 67q13 28 33 54q32 44 87 91q39 32 95 55q49 21 100 27q23 2 46 2q14 -1 28 -1q36 -2 73 -6q35 -4 61 -13q44 -15 82 -32q45 -21 71 -43q44 -38 56 -53q18 -25 35.5 -54.5t30.5 -71.5q15 -45 15 -109q-2 -90 -23 -161 q-12 -37 -21 -55.5t-24 -42.5q-23 -38 -52 -65q-27 -26 -74 -49q-44 -22 -123 -42q-25 -7 -69 -15q-40 -7 -74 -7h-9q-61 2 -130 26q-55 20 -117 63q-44 30 -65 57q-30 35 -53 101q-8 22 -16 50.5t-10 52.5zM164 741q0 -9 -1 -17q0 -36 8 -60q15 -56 50 -83q12 -11 42 -28 q12 -9 33.5 -20.5t40.5 -14.5q64 -16 106 -16q9 0 17 1q27 3 60.5 15.5t84.5 54.5q49 40 75 89q18 33 18 85t-12 87q-11 31 -33 62q-20 25 -42 40q-40 26 -89 42q-21 6 -58 6t-60 -3q-12 -3 -39.5 -10.5t-39.5 -13.5q-27 -13 -47 -23t-44 -30q-23 -18 -39 -47 q-17 -31 -24 -61q-6 -30 -7 -55z" />
<glyph unicode="p" horiz-adv-x="961" d="M0 372q1 32 1 56q0 50 25 47q12 -2 11.5 -3.5t13.5 -3.5q24 -6 22.5 0t1.5 30q0 21 -2 44.5t-2 45.5q-1 31 -1 63t-2 64q-5 48 -8 98t-9 98q-5 43 -8 86t-6 87q-3 38 -5.5 77.5t-2.5 78.5q0 37 -4 73.5t-8 74.5q-4 32 -6 41.5t25 10.5q26 1 48 6.5t47 11.5q24 6 32 6h1 q8 -1 10 -28q0 -14 -2 -23t0 -26q2 -32 12.5 -37t58.5 -6q33 -1 61.5 -4t62.5 -4q61 -5 136 -21q33 -7 60 -17.5t57 -21.5q18 -7 46 -21t44 -23q20 -13 50 -35q55 -45 82 -88q19 -34 30.5 -79t21.5 -84q16 -68 16 -148q0 -29 -2 -59q-3 -39 -15.5 -80.5t-24.5 -77.5 q-9 -23 -48 -81q-13 -20 -41 -44t-46 -39q-43 -33 -97 -57q-21 -10 -45.5 -16.5t-48.5 -12.5q-67 -19 -119 -27q-15 -3 -27 -4l-24 -2q-34 -4 -61 -4h-16q-22 0 -21 -25q0 -23 1.5 -64.5t5.5 -63.5q10 -70 18 -110.5t16 -89.5q4 -27 7 -54t8 -56q8 -42 -2 -47 q-15 -7 -40 -12.5t-49 -11.5q-31 -7 -40 -7h-3q-44 0 -46 34q-3 21 1 43.5t3 44.5q-1 15 -5 43q-15 127 -19 143t-10 145q-2 26 0 56q1 33 -23 31q-27 -3 -42.5 -0.5t-29.5 2.5q-18 -1 -22 24q-3 19 -3 45v8zM207 1145q3 -22 1 -53q-1 -12 -1 -23q0 -18 2 -34q6 -42 7 -83 t5 -82q3 -34 9 -96q6 -49 8 -94.5t6 -94.5q1 -18 4 -35l6 -34q4 -33 5.5 -37t36.5 -7q24 -2 51 -2h6q34 0 75 10q45 12 80 25q57 20 114 58q17 12 41.5 36t37.5 46q29 50 37 88q6 33 6 85q0 20 -1 42q-2 20 -7 51t-14 49q-21 44 -60 78q-24 21 -51.5 43t-57.5 34 q-72 24 -130 34q-108 18 -195 18q-22 0 -22 -16q0 -3 1 -6z" />
<glyph unicode="q" horiz-adv-x="916" d="M6 910q13 82 74 152q39 45 90.5 75t103.5 57q44 23 119 43t128 25q9 1 7 12q-2 14 -19 32q-31 30 1 38q13 3 25.5 0.5t27.5 -2.5q12 -1 23 -1q38 0 63 8q28 8 39 9l1 1q11 0 12 -34q0 -41 5 -91q2 -31 4.5 -61.5t7.5 -60.5q10 -77 16 -157.5t15 -154.5q14 -124 22.5 -254 t20.5 -259q3 -39 5.5 -79t6.5 -79q3 -30 5 -51.5t5 -50.5q5 -48 8 -97t8 -99q6 -54 16 -112t18 -106t8 -59q0 -14 -13 -15q-32 -1 -61 -7q-18 -4 -40 -4q-10 0 -21 1q-39 5 -42.5 17t-3.5 49q-1 75 -3 149.5t-3 149.5q-2 86 -9 178q-5 48 -10.5 96t-13.5 96q-6 33 -5 57.5 t-30 18.5q-17 -3 -30.5 -3h-31.5q-9 -1 -19 -1q-62 0 -142 23q-67 18 -108 38q-77 33 -134 90q-63 61 -106 159q-44 98 -44 200q0 32 4 64zM155 830q3 -65 32 -143q41 -108 180 -154q33 -12 60 -15t64 -7q21 -4 39 -4q8 0 16 1q38 4 46 4.5t8 29.5q0 38 -0.5 73.5t-3.5 73.5 q-6 59 -11 119.5t-11 114.5q-3 28 -6 53.5t-6 49.5q-7 39 -8 48q0 7 -28 7h-14q-84 -5 -148 -24q-31 -9 -52.5 -18.5t-47.5 -19.5q-60 -24 -96 -98q-14 -29 -14 -71q0 -10 1 -20z" />
<glyph unicode="r" horiz-adv-x="1130" d="M2 1891q-2 11 -2 19q0 16 8 16q11 0 41 -2q8 -1 18 -1q29 0 68 9q15 3 26 7t25 4q34 -2 8 -37q-4 -6 -13 -26.5t9 -18.5q10 0 20.5 -1.5t21.5 -1.5q12 -1 25 -1h26q34 0 52 -1q44 -4 110 -19q46 -12 104 -34q88 -31 141 -91q51 -58 69 -108q22 -70 28 -113q2 -22 2 -49 v-18q-2 -36 -14 -84q-6 -18 -10 -32.5t-14 -35.5q-32 -64 -62 -110q-4 -7 -18.5 -25.5t-25.5 -31.5q-21 -23 -67 -55q-24 -16 -52 -30t-53 -27q-9 -5 -19 -8.5t-19 -7.5q-16 -7 0 -14q6 -4 13 -10.5t10 -7.5q30 -26 51.5 -44.5t52.5 -43.5q64 -56 129 -111l130 -110 q21 -18 42.5 -35t43.5 -35q29 -24 50 -37t51 -34q12 -10 42 -34q27 -24 27 -32.5t-17 -31.5q-15 -20 -25.5 -39.5t-22.5 -39.5q-18 -32 -26.5 -23.5t-38.5 32.5q-44 34 -86 69.5t-85 70.5q-34 27 -67 55t-66 57q-49 41 -98.5 82t-97.5 83q-33 27 -66.5 52t-64.5 52 q-22 18 -34.5 26.5t-32.5 26.5q-20 19 -17 -1q2 -31 7 -100q2 -35 4 -69.5t5 -68.5q1 -33 4 -58t6 -55q1 -15 4 -32.5t6 -32.5q13 -82 19 -127t13 -84.5t15 -84.5q6 -37 4.5 -49.5t-38.5 -22.5q-32 -10 -61 -9.5t-60 -2.5h-4q-12 0 -12 14q0 21 -1.5 30t-0.5 28q0 34 -2 64 q-1 13 0 26q0 19 1 40q0 34 -3 70t-6 70q-4 36 -8 73t-6 75q-3 64 -10.5 129.5t-13.5 129.5q-6 70 -18 170q-4 36 -5.5 71t-4.5 73q-5 48 -10 98t-9 101q-3 32 -6.5 64t-6.5 65q-4 36 -7 65t-3 64q0 82 -11 177q-6 60 -11 90zM191 1621q1 -48 6 -103q1 -24 3 -47t4 -41 q3 -41 7 -74.5t8 -72.5q3 -37 8 -73t11 -72q4 -29 12.5 -29t47.5 5q22 2 62 14q36 11 56.5 19t53.5 22q47 20 71 48q61 68 79 136q3 13 6 27.5t5 35.5v9q0 33 -6 81q-7 46 -28 82q-16 26 -51 48q-42 26 -88 35q-55 10 -102 14q-36 2 -58 2q-5 -1 -10 -1q-23 0 -57 -2 q-41 -3 -41 -13z" />
<glyph unicode="s" horiz-adv-x="613" d="M2 311q4 3 18 10q16 5 34 14q50 19 79 38q9 6 28 18.5t30 21.5q43 35 69 96q10 24 16 40t7 63v8q0 52 -25 103q-26 48 -63 84.5t-63 81.5q-14 21 -31.5 51t-23.5 58q-4 15 -8 32t-5 41q-2 26 2.5 45t10.5 48q7 32 27 76q9 18 21.5 42.5t24.5 39.5q51 67 89 100 q28 24 73 48q41 22 55 29q13 6 55 22q28 10 57.5 20t64.5 13q26 0 33 -2q4 -1 4 -10q0 -6 -2 -17q-3 -15 -4.5 -49t0.5 -48q3 -43 -0.5 -51.5t-51.5 -9.5q-29 0 -66 -10q-42 -11 -66 -26q-36 -25 -50 -38q-41 -39 -53 -79q-13 -44 -16 -112v-14q0 -58 23 -107 q9 -23 28 -45.5t30 -37.5q15 -20 25 -33.5t24 -37.5q25 -45 34 -78t15 -84q4 -40 4 -77.5t-4 -70.5q-5 -43 -22 -97q-20 -66 -72 -116q-15 -16 -30.5 -27t-32.5 -24q-27 -21 -69 -43q-30 -16 -50.5 -26t-50.5 -19q-40 -11 -46 -13l-1 -1q-6 0 -20 30q-10 19 -23 51 q-6 12 -13 24.5t-12 24.5q-8 20 -8 27q0 2 1 3z" />
<glyph unicode="t" horiz-adv-x="624" d="M3 964v7q0 23 17 28q20 3 39 0t40 0q24 3 22.5 10t3.5 28q6 32 5 63.5t-1 63.5q-2 28 -2 56q1 6 1 14q0 36 1 72q0 64 -1 129t-1 130q0 20 1.5 39.5t2.5 38.5q0 33 1 37t48 13q33 6 64.5 8t58.5 13q4 2 8 2q14 0 16 -29q0 -47 -1 -69q-3 -57 -5 -113t-4 -113 q-2 -33 -9.5 -83t-7.5 -83q-1 -30 -3 -57.5t-2 -57.5q-1 -35 -1 -57v-20q2 -39 5 -41t43 0q77 3 95 3h5q10 0 102 -2q36 -1 43.5 -4t7.5 -36q0 -15 -4.5 -33t-7.5 -42q-3 -37 -16 -54t-56 -14q-28 3 -57 3h-9q-33 0 -83 -1q-75 -1 -75.5 -14.5t-4.5 -85.5q-2 -24 -8 -70 q-13 -100 -15 -156q0 -10 -1 -24q0 -69 10 -213q10 -172 16 -205q4 -34 -40 -34q-36 0 -59.5 4.5t-56.5 -1.5q-31 -6 -30 11.5t-2 45.5q-6 46 -6 90q0 16 1 32q1 35 3 63.5t4 68.5q1 42 1 92q0 25 -0.5 53t-0.5 56t1 56q1 57 2 113q0 19 -1 38t-1 39q0 28 -3.5 30t-31.5 -1 q-12 -1 -21 -1q-35 0 -35 17l2 42q0 17 -1 38q-2 33 -6 67z" />
<glyph unicode="u" horiz-adv-x="946" d="M2 977v35.5v35.5q0 38 7 42q16 6 41.5 8t50.5 5q26 4 40 3q45 -4 45 -38q0 -8 -4 -20q-9 -29 -10 -56.5t-1 -55.5v-88.5v-87.5q0 -29 -2 -57.5t1 -56.5q0 -21 5.5 -52t14.5 -48q28 -55 59 -82q21 -18 34 -28t36 -26q25 -18 58.5 -29t63.5 -18q37 -9 67 -9q20 0 38 4 q23 5 45 10t45 14q15 6 24 10.5t22 6.5q23 2 21 26q-1 22 -2 52.5t-2 57.5q-2 26 -5 53.5t-4 54.5q-3 37 -7 73.5t-4 71.5q-1 19 -3 38t-2 39q-1 15 -2.5 30t-1.5 30q-2 15 -2.5 30t-1.5 30q-3 17 -5.5 34t-4.5 35q-4 23 -8 46.5t-4 47.5q0 25 4 29t36 5q35 0 58.5 -4 t57.5 3q7 1 12 1q18 0 19 -14q1 -18 2 -44q0 -32 1.5 -40.5t2.5 -32.5q2 -30 2 -69q0 -32 0.5 -64t3.5 -63q2 -30 4 -62t6 -62q7 -59 11.5 -122.5t7.5 -122.5q3 -39 6 -78.5t3 -77.5q0 -27 3 -52.5t5 -52.5q2 -38 4 -44l7 -42q0 -9 -27 -9q-35 -2 -60 -9q-22 -6 -34 -9 q-25 -6 -33 -6h-2q-8 0 -8 28q-1 13 1 22t1 27q-3 31 -13 26t-55 -14q-32 -7 -60.5 -13t-61.5 -6q-11 -1 -21 -1q-25 0 -49 4q-32 5 -69 13q-55 12 -120 38q-65 24 -109 56q-84 59 -110 111q-24 42 -33 75.5t-15 86.5q-11 77 -13 133q-5 78 -5 108v51q0 31 -1 62.5t-1 63.5z " />
<glyph unicode="v" horiz-adv-x="1010" d="M9 1009q-7 6 -7 11t7 9q10 5 20 9.5t20 10.5q9 4 18.5 7.5t18.5 7.5q21 8 37 16q3 1 17 8q28 14 46 -11q8 -12 12 -19q12 -19 22 -35t24 -35q6 -10 14 -24.5t15 -24.5q13 -21 19.5 -32t19.5 -29q21 -30 30 -40q12 -14 23 -28.5t23 -28.5q37 -48 53 -71q15 -24 38 -51 q36 -44 52 -67q11 -18 16 -26t17 12q7 12 10 27t9 30q11 27 23 54.5t23 56.5q9 26 16.5 49.5t19.5 49.5q9 21 16.5 42t16.5 42q9 24 18.5 48.5t18.5 50.5q7 26 17 49t21 48q11 27 25 27t41 -5q22 -5 45 -6t44 -7q19 -7 19 -21q0 -12 -12 -29q-21 -28 -37 -63.5t-31 -66.5 q-10 -21 -18 -40.5t-17 -40.5q-29 -66 -45 -113q-7 -20 -12.5 -40t-12.5 -38q-11 -30 -20 -59.5t-18 -59.5q-15 -55 -23 -103q-3 -18 -6.5 -34t-5.5 -34q-4 -23 -2 -53v-27t-23 -10q-17 -5 -40.5 -5.5t-41.5 -3.5q-32 -5 -44 -9q-2 -1 -3 -1q-12 0 -28 23q-10 12 -17 25.5 t-16 27.5q-9 11 -16 22t-14 23q-23 34 -44 72q-12 21 -25.5 38.5t-25.5 38.5q-14 21 -26 43t-25 44q-27 43 -68 94q-11 12 -19.5 25.5t-17.5 27.5q-9 12 -18.5 25.5t-18.5 26.5q-24 34 -38 49q-40 43 -61 68q-27 34 -31 38q-12 10 -17 15z" />
<glyph unicode="w" horiz-adv-x="1626" d="M8 1078q-3 10 -3 18q0 14 11 19q12 6 25 8.5t25 6.5t25 8.5t26 9.5q3 1 34.5 16t35.5 18q10 10 10 -9q-3 -24 -2 -28q1 -26 3.5 -33t9.5 -26q26 -78 57 -155.5t56 -155.5q11 -39 20 -58t22 -53q10 -30 21.5 -54t25.5 -63q15 -46 25 -92q0 -2 13 -21.5t29 25.5 q15 40 20.5 83t14.5 85q15 77 24 127.5t30 126.5q4 17 10.5 34.5t12.5 35.5q6 21 13 41.5t4 42.5q-4 24 -42 61q-13 12 -16.5 19t17.5 24q19 15 30 23.5t29 24.5q15 15 27.5 28t36.5 10q15 -2 14.5 -13t23.5 -8q25 3 45.5 -18t49.5 -26q28 -6 29.5 -9t-5.5 -28 q-6 -21 -16 -39.5t0 -39.5q7 -15 19 -28t24 -27q12 -15 25.5 -31t28.5 -28q20 -18 38.5 -35.5t39.5 -34.5q15 -12 28.5 -23t28.5 -23q30 -24 58 -50t58 -50q15 -14 32 -27t32 -28t21.5 -21t13.5 15q4 14 5.5 29t4.5 30q13 67 20 111q3 27 8 61t9 71q5 41 12 90t16 121 q1 15 5 32.5t7 32.5q5 30 19.5 33t41.5 4q22 0 44 4q15 3 31 3q8 0 15 -1q23 -3 23 -23q0 -10 -6 -24q-14 -32 -22.5 -70t-16.5 -71q-6 -24 -9.5 -44.5t-7.5 -42.5q-9 -48 -15 -100t-12 -102q-3 -32 -6.5 -63t-5.5 -62q-2 -26 -2 -52t2 -52v-35t2 -35q2 -28 10 -53 q5 -22 5.5 -26t-20.5 -14q-19 -9 -39 -14t-39 -12q-30 -12 -40.5 -18.5t-34.5 14.5q-13 10 -23 22t-22 23q-52 45 -97 97q-16 18 -32.5 32.5t-33.5 32.5q-18 18 -34.5 37t-33.5 38q-45 48 -84 80q-36 30 -57 49q-11 9 -22.5 17.5t-22.5 17.5q-46 34 -58 45q-25 16 -26 5.5 t-2 -33.5q-2 -23 -8.5 -44.5t-12.5 -42.5q-20 -62 -31.5 -97t-33.5 -113q-14 -47 -29 -93.5t-29 -92.5q-26 -81 -39 -97.5t-1 -34.5q6 -13 11.5 -26.5t14.5 -25.5q17 -24 8.5 -26.5t-36.5 -11.5q-33 -11 -63.5 -20t-64.5 -17q-10 -2 -17 -2q-23 0 -30 20q-8 19 -16 39.5 t-13 40.5q-23 87 -54 172t-61 169q-48 126 -88 221q-34 78 -68 169q-15 39 -32 76.5t-31 76.5z" />
<glyph unicode="x" horiz-adv-x="1541" d="M19 1267q5 6 33 34q17 18 38 58q15 27 27.5 15t37.5 -24q27 -14 51.5 -32.5t49.5 -36.5q28 -21 48.5 -40.5t53.5 -43.5q28 -22 56.5 -44t58.5 -43q45 -33 88.5 -68.5t87.5 -69.5q7 -6 11 -10t13 -10q19 -17 34 -6t25 20q24 21 49 49t56 64q48 57 98 112.5t100 112.5 q65 75 136 174q10 15 17 21t20 24q4 7 10 7q5 0 11 -5q22 -22 45.5 -39t44.5 -43q23 -31 17 -42t-33 -36q-54 -53 -107.5 -105t-107.5 -105q-32 -31 -61.5 -64.5t-60.5 -64.5q-18 -18 -28.5 -31.5t-25.5 -31.5q-24 -29 -48.5 -56t-44.5 -57q-8 -11 6 -21q19 -16 51 -44 t64 -53q114 -93 185.5 -157.5t170.5 -141.5q34 -27 70.5 -52t72.5 -53q28 -24 28 -31q0 -8 -18 -33q-17 -23 -28 -41q-6 -9 -10.5 -19.5t-9.5 -19.5q-14 -24 -22 -24q-3 0 -5 2q-8 8 -38 32q-44 33 -86.5 68.5t-84.5 71.5q-84 68 -142.5 118t-140.5 120q-21 17 -62 49.5 t-63 50.5q-25 20 -40 31q-19 14 -38 -7q-27 -29 -56.5 -56.5t-56.5 -54.5q-55 -57 -85 -97q-30 -39 -56 -70.5t-56 -68.5q-28 -35 -52 -67.5t-52 -68.5q-23 -30 -33 -37.5t-43 13.5q-29 16 -48.5 38t-43.5 43q-13 9 0 21q16 13 21.5 21t19.5 20q25 22 46.5 42.5t48.5 46.5 q74 71 141 149l134 156q6 7 20 21l21 21q36 38 37 42q0 2 -52 46q-20 15 -64.5 50t-78.5 65q-51 44 -145 109q-55 36 -128 82q-35 21 -61 33.5t-35 19.5q-17 11 -17 25q0 12 14 27z" />
<glyph unicode="y" horiz-adv-x="1035" d="M31 1164q14 8 42 26q9 5 17 12.5t17 14.5q19 13 27 13q5 0 6 -4q4 -11 22 -46q25 -49 49 -98.5t48 -98.5q48 -97 93 -195t92 -194q18 -38 38 -75t38 -74q12 -26 19.5 -39t18.5 -38q11 -21 17 -6q12 37 26 73.5t29 73.5q9 21 14.5 39.5t14.5 37.5q12 28 22.5 52t18.5 54 q12 46 24 93.5t26 94.5q12 42 22 81t23 84q9 36 15.5 46.5t45.5 4.5q32 -5 58.5 -17.5t56.5 -21.5q10 -4 10 -12q0 -4 -2 -8q-10 -19 -12 -28t-10 -25q-15 -32 -26.5 -59t-26.5 -60q-63 -149 -109 -304t-100 -306q-24 -65 -60 -160t-64 -162q-16 -38 -30.5 -74.5 t-29.5 -69.5q-15 -32 -40 -108.5t-46 -153.5q-15 -57 -24 -100t-15 -63q-10 -26 -24 -26q-3 0 -6 1q-2 1 -34 13q-33 12 -47 20t-47 16q-30 7 -23.5 22t12.5 42q7 30 17 59t20 57q11 34 24 59.5t27 63.5q12 34 24.5 68t24.5 67q18 54 39.5 105.5t40.5 102.5q11 29 28.5 64.5 t23.5 71.5q2 16 -3.5 24t-11.5 20q-12 24 -27 47t-29 47q-17 27 -36 58t-32 57q-67 129 -124.5 262t-123.5 262q-18 33 -28.5 52t-24.5 43q-18 30 -33 60q-12 26 -12 35t30 27z" />
<glyph unicode="z" horiz-adv-x="1327" d="M0 1087q3 15 5.5 44t2.5 34q0 36 -1 53q0 12 -2.5 25t-0.5 28q0 18 31 20q28 1 48 1q33 -2 57.5 -4t60.5 -2q38 -2 92.5 -3.5t90.5 -1.5q35 -2 53.5 -1.5t46.5 -0.5t61.5 -1t75.5 -1h26l40 1q33 2 66 1q129 1 227 7q22 1 43 0.5t42 0.5q28 0 34 -38q6 -51 10 -132 q1 -30 1 -40t-27 -1q-21 7 -39 10.5t-39 11.5q-22 6 -29.5 -8t-25.5 -30q-81 -76 -135 -131q-26 -27 -52 -53t-51 -53q-24 -27 -52 -52t-54 -49q-19 -18 -37 -36.5t-35 -36.5q-25 -25 -50 -56.5t-51 -56.5q-16 -15 -29 -33t-31 -30q-20 -15 -28 -21.5t19 -17.5 q6 -3 32.5 -9.5t36.5 -7.5q58 -10 116 -23.5t117 -22.5q46 -9 94 -17t94 -17q52 -10 102 -22.5t104 -18.5q71 -10 160 -16q20 -2 30 -4q12 -2 14 -25q0 -18 -9 -76.5t-14 -68.5q-8 -19 -16 -19h-1q-8 2 -20 7q-40 14 -104 30q-11 3 -73 14.5t-80 14.5q-51 9 -101.5 19 t-100.5 20q-57 12 -113.5 22.5t-111.5 18.5q-78 10 -129 22q-33 7 -71 19q-27 9 -52 8q-10 0 -19 -1q-24 -4 -34.5 -21.5t-24.5 -32.5q-18 -21 -21.5 -21t-22.5 22q-20 21 -48.5 27t-38.5 30q-11 21 -20 15t-18 6q-17 21 -12 36t10 39q5 27 10 75q3 27 11 27.5t26 -3.5 q28 -9 48 -9q15 0 25 5q20 9 35 25t31 32q13 12 25 26.5t24 29.5q28 31 57 60q16 16 37 35.5t35 34.5q22 24 45 48.5t50 48.5q45 38 79.5 72.5t76.5 74.5q18 16 39.5 35.5t39.5 34.5q34 28 69 64q17 18 -13 13q-15 -3 -29.5 -6t-25.5 -3q-21 0 -40.5 -0.5t-37.5 0.5 q-36 1 -77 1q-35 0 -61 0.5t-73 0.5q-83 -1 -148 -2t-146 -1h-41t-45 -6q-8 -2 -33 -13q-12 -5 -12 6z" />
<glyph unicode="|" horiz-adv-x="512" d="M0 -715v2854h488v-2854h-488z" />
<glyph unicode="&#xad;" d="M1 658q-1 36 3.5 34.5t25.5 -1.5q28 0 56.5 -2.5t57.5 -2.5q54 -2 111 -2t113 -4q61 -6 130 -9t135 -8q15 -2 30.5 -1.5t30.5 -2.5q32 -4 31 -18q-2 -16 -2.5 -33.5t-0.5 -33.5q-1 -12 -2.5 -23t-1.5 -23q-4 -40 -6 -44t-20 1q-48 12 -113 19.5t-131 13.5q-46 3 -96 6 t-96 3q-57 -1 -113.5 -3t-111.5 -2q-18 0 -21 4t-3 40q-1 12 -1.5 24.5t-0.5 24.5q0 11 -2 21.5t-2 21.5z" />
<glyph unicode="&#x2000;" horiz-adv-x="1069" />
<glyph unicode="&#x2001;" horiz-adv-x="2139" />
<glyph unicode="&#x2002;" horiz-adv-x="1069" />
<glyph unicode="&#x2003;" horiz-adv-x="2139" />
<glyph unicode="&#x2004;" horiz-adv-x="713" />
<glyph unicode="&#x2005;" horiz-adv-x="534" />
<glyph unicode="&#x2006;" horiz-adv-x="356" />
<glyph unicode="&#x2007;" horiz-adv-x="356" />
<glyph unicode="&#x2008;" horiz-adv-x="267" />
<glyph unicode="&#x2009;" horiz-adv-x="427" />
<glyph unicode="&#x200a;" horiz-adv-x="118" />
<glyph unicode="&#x2010;" d="M1 658q-1 36 3.5 34.5t25.5 -1.5q28 0 56.5 -2.5t57.5 -2.5q54 -2 111 -2t113 -4q61 -6 130 -9t135 -8q15 -2 30.5 -1.5t30.5 -2.5q32 -4 31 -18q-2 -16 -2.5 -33.5t-0.5 -33.5q-1 -12 -2.5 -23t-1.5 -23q-4 -40 -6 -44t-20 1q-48 12 -113 19.5t-131 13.5q-46 3 -96 6 t-96 3q-57 -1 -113.5 -3t-111.5 -2q-18 0 -21 4t-3 40q-1 12 -1.5 24.5t-0.5 24.5q0 11 -2 21.5t-2 21.5z" />
<glyph unicode="&#x2011;" d="M1 658q-1 36 3.5 34.5t25.5 -1.5q28 0 56.5 -2.5t57.5 -2.5q54 -2 111 -2t113 -4q61 -6 130 -9t135 -8q15 -2 30.5 -1.5t30.5 -2.5q32 -4 31 -18q-2 -16 -2.5 -33.5t-0.5 -33.5q-1 -12 -2.5 -23t-1.5 -23q-4 -40 -6 -44t-20 1q-48 12 -113 19.5t-131 13.5q-46 3 -96 6 t-96 3q-57 -1 -113.5 -3t-111.5 -2q-18 0 -21 4t-3 40q-1 12 -1.5 24.5t-0.5 24.5q0 11 -2 21.5t-2 21.5z" />
<glyph unicode="&#x2012;" d="M1 658q-1 36 3.5 34.5t25.5 -1.5q28 0 56.5 -2.5t57.5 -2.5q54 -2 111 -2t113 -4q61 -6 130 -9t135 -8q15 -2 30.5 -1.5t30.5 -2.5q32 -4 31 -18q-2 -16 -2.5 -33.5t-0.5 -33.5q-1 -12 -2.5 -23t-1.5 -23q-4 -40 -6 -44t-20 1q-48 12 -113 19.5t-131 13.5q-46 3 -96 6 t-96 3q-57 -1 -113.5 -3t-111.5 -2q-18 0 -21 4t-3 40q-1 12 -1.5 24.5t-0.5 24.5q0 11 -2 21.5t-2 21.5z" />
<glyph unicode="&#x2013;" horiz-adv-x="1059" d="M0 658q-1 36 5.5 34.5t35.5 -1.5q40 0 80 -2.5t81 -2.5q77 -2 157.5 -2t159.5 -4q86 -6 184 -9t191 -8q21 -2 43 -1.5t43 -2.5q45 -4 44 -18q-3 -16 -3.5 -33.5t-0.5 -33.5q-2 -12 -4 -23t-2 -23q-6 -40 -8.5 -44t-28.5 1q-68 12 -159.5 19.5t-185.5 13.5q-65 3 -135.5 6 t-135.5 3q-81 -1 -161 -3t-157 -2q-26 0 -30 4t-4 40q-2 12 -2.5 24.5t-0.5 24.5q0 11 -3 21.5t-3 21.5z" />
<glyph unicode="&#x2014;" horiz-adv-x="2084" d="M1 658q-3 36 9.5 34.5t72.5 -1.5q79 0 159.5 -2.5t162.5 -2.5q153 -2 314 -2t319 -4q173 -6 368 -9t382 -8q42 -2 86 -1.5t86 -2.5q91 -4 88 -18q-6 -16 -7.5 -33.5t-1.5 -33.5q-2 -12 -6.5 -23t-4.5 -23q-11 -40 -17 -44t-56 1q-136 12 -320 19.5t-370 13.5 q-130 3 -271.5 6t-271.5 3q-162 -1 -321.5 -3t-315.5 -2q-51 0 -59.5 4t-8.5 40q-2 12 -3.5 24.5t-1.5 24.5q0 11 -5.5 21.5t-5.5 21.5z" />
<glyph unicode="&#x202f;" horiz-adv-x="427" />
<glyph unicode="&#x205f;" horiz-adv-x="534" />
<glyph unicode="&#x25fc;" horiz-adv-x="1530" d="M0 0v1530h1530v-1530h-1530z" />
</font>
</defs>
</svg>
